<?xml version="1.0" encoding="UTF-8" standalone="no"?>
<!-- Created with Inkscape (http://www.inkscape.org/) -->

<svg
   version="1.1"
   id="svg1"
   width="198"
   height="174.36858"
   viewBox="0 0 198 174.36858"
   sodipodi:docname="idI9pnzYhM_1755145562700.jpeg"
   xmlns:inkscape="http://www.inkscape.org/namespaces/inkscape"
   xmlns:sodipodi="http://sodipodi.sourceforge.net/DTD/sodipodi-0.dtd"
   xmlns="http://www.w3.org/2000/svg"
   xmlns:svg="http://www.w3.org/2000/svg">
  <defs
     id="defs1" />
  <sodipodi:namedview
     id="namedview1"
     pagecolor="#ffffff"
     bordercolor="#000000"
     borderopacity="0.25"
     inkscape:showpageshadow="2"
     inkscape:pageopacity="0.0"
     inkscape:pagecheckerboard="0"
     inkscape:deskcolor="#d1d1d1">
    <inkscape:page
       x="0"
       y="0"
       width="198"
       height="174.36858"
       id="page2"
       margin="0"
       bleed="0" />
  </sodipodi:namedview>
  <g
     inkscape:groupmode="layer"
     inkscape:label="Image"
     id="g1"
     transform="translate(-41,-52.934409)">
    <path
       style="fill:#f9f9f9;stroke:none"
       d="M 78,80 41,58 c 2.552727,19.767319 12.262493,39.447052 13.776237,59 0.386315,4.99001 -1.518276,10.01492 -1.736885,15 -0.728092,16.60306 0.969037,33.02655 8.744599,48 31.096588,59.8829 116.082439,63.67538 152.517749,7 10.58197,-16.46033 13.15257,-34.85905 12.68364,-54 -0.13047,-5.32518 -2.17246,-10.6927 -1.76157,-16 C 226.73474,97.483261 236.48857,77.768021 239,58 L 202,80 C 197.72041,72.798431 189.18948,67.727936 182,63.731476 157.5354,50.132172 125.92109,49.12207 101,62.167435 92.701469,66.511444 82.809319,71.602722 78,80 m 121,40 c -16.11003,6.60939 -39.69794,15.32494 -51,29 l 52,7 c -9.19746,61.40739 -110.801682,61.41261 -120,0 l 53,-8 v -1 L 81,120 c 21.52224,-55.474136 95.91116,-53.7677 118,0 z"
       id="path1" />
    <path
       style="fill:#f9f9f9;stroke-width:1.91253"
       d="m 127.42087,225.93418 c -37.515385,-5.47162 -67.959308,-35.15026 -72.963554,-71.12946 -1.190812,-8.56161 -1.146279,-21.89068 0.10198,-30.52408 1.275843,-8.82417 0.06621,-16.18404 -6.356962,-38.67823 -4.496926,-15.748398 -6.879664,-25.599282 -6.318181,-26.121063 0.156487,-0.145422 7.874883,4.279853 17.151992,9.833945 9.277108,5.554092 17.342162,10.298106 17.922343,10.542253 0.580181,0.244147 2.78727,-1.482938 4.904645,-3.837968 6.941032,-7.720099 22.877437,-16.298166 37.373947,-20.117228 6.79913,-1.79121 10.02361,-2.140512 19.91955,-2.157848 12.53361,-0.02196 19.31684,1.062006 30.08919,4.80826 9.51706,3.309705 21.54981,10.438664 27.61184,16.358978 l 5.46109,5.333426 3.41893,-1.913594 c 1.88042,-1.052476 9.87075,-5.792588 17.7563,-10.533581 7.88554,-4.740993 14.46538,-8.492245 14.62187,-8.336114 0.55844,0.557167 -1.80731,10.361775 -6.30743,26.140534 -6.43958,22.57903 -7.64063,29.87434 -6.36772,38.67823 2.16868,14.99932 0.60335,33.39851 -3.97028,46.66752 -6.47328,18.78025 -22.91227,37.02431 -41.83187,46.42516 -16.25366,8.07619 -34.74978,11.10854 -52.21768,8.56086 z m 24.09351,-24.44521 c 22.80289,-3.53799 40.14433,-17.06491 46.62437,-36.36863 3.50024,-10.42703 5.82243,-9.12433 -22.92791,-12.8621 -13.7997,-1.79407 -25.25245,-3.39249 -25.45056,-3.55203 -0.61081,-0.49189 4.35609,-5.31468 8.79394,-8.53879 2.31927,-1.68496 4.40662,-3.29311 4.63855,-3.57366 0.67844,-0.82067 19.96613,-9.66861 28.46386,-13.05737 4.29066,-1.71105 7.8012,-3.29786 7.8012,-3.52624 0,-0.22838 -1.5684,-3.4299 -3.48532,-7.11447 -3.71926,-7.14887 -12.74215,-17.599352 -18.78465,-21.756696 -5.19597,-3.574921 -9.90739,-6.093381 -12.16511,-6.502784 -1.10959,-0.201208 -2.51688,-0.865267 -3.1273,-1.475687 -0.61042,-0.61042 -5.56703,-1.985782 -11.01469,-3.05636 -9.0415,-1.776843 -10.6211,-1.862469 -18.12237,-0.98237 -18.94865,2.223184 -34.677726,11.716053 -45.363759,27.378097 -4.27768,6.26961 -7.193266,13.36537 -5.845836,14.2272 0.605994,0.38761 12.237568,6.46094 25.847945,13.49629 15.02523,7.76671 24.30158,13.01626 23.61446,13.36358 -0.62243,0.31462 -12.42234,2.24027 -26.22204,4.27922 -22.462774,3.31896 -25.090365,3.86979 -25.090365,5.25977 0,3.22007 4.350671,14.33209 7.667942,19.58462 11.772903,18.64106 38.117283,28.81716 64.147643,24.77841 z"
       id="path2" />
  </g>
</svg>
