<?xml version="1.0" encoding="UTF-8" standalone="no"?>
<!-- Uploaded to: SVG Repo, www.svgrepo.com, Generator: SVG Repo Mixer Tools -->

<svg
   fill="#000000"
   width="800px"
   height="800px"
   viewBox="0 0 14 14"
   role="img"
   focusable="false"
   aria-hidden="true"
   version="1.1"
   id="svg1"
   sodipodi:docname="freeipa.svg"
   inkscape:version="1.4.2 (ebf0e940d0, 2025-05-08)"
   xmlns:inkscape="http://www.inkscape.org/namespaces/inkscape"
   xmlns:sodipodi="http://sodipodi.sourceforge.net/DTD/sodipodi-0.dtd"
   xmlns="http://www.w3.org/2000/svg"
   xmlns:svg="http://www.w3.org/2000/svg">
  <defs
     id="defs1" />
  <sodipodi:namedview
     id="namedview1"
     pagecolor="#ffffff"
     bordercolor="#000000"
     borderopacity="0.25"
     inkscape:showpageshadow="2"
     inkscape:pageopacity="0.0"
     inkscape:pagecheckerboard="0"
     inkscape:deskcolor="#d1d1d1"
     inkscape:zoom="0.415"
     inkscape:cx="400"
     inkscape:cy="400"
     inkscape:window-width="1177"
     inkscape:window-height="1026"
     inkscape:window-x="0"
     inkscape:window-y="0"
     inkscape:window-maximized="1"
     inkscape:current-layer="svg1" />
  <path
     d="m 6.145969,12.402862 c -0.074,-0.024 -0.18484,-0.077 -0.24626,-0.1166 -0.0614,-0.04 -1.15261,-1.1147 -2.42484,-2.3889999 -2.67411008,-2.6785 -2.47136,-2.4404 -2.47136,-2.9028 0,-0.4613 -0.20427008,-0.222 2.49588,-2.9236 2.17286,-2.1741 2.34619,-2.3419 2.48844,-2.4085 0.19859,-0.093 0.40108,-0.1258 0.58973,-0.095 0.32822,0.053 0.19247,-0.07 2.7685,2.5041 2.25711,2.2553 2.36526,2.3672 2.43742,2.5224 0.13305,0.2861 0.11691,0.623 -0.0433,0.9048 -0.034,0.06 -0.4009,0.4481 -0.84792,0.8974 l -0.7879,0.7919 1.44783,1.4479999 c 0.79631,0.7964 1.44783,1.4602 1.44783,1.4752 0,0.043 -0.16883,0.1657 -0.3356,0.2437 -0.29985,0.1403 -0.64419,0.1136 -0.9257,-0.072 -0.0834,-0.055 -1.00524,-0.9615 -2.43561,-2.3952999 -2.66071,-2.6671 -2.45964,-2.4306 -2.45964,-2.8929 0,-0.2473 0.003,-0.2654 0.081,-0.4225 0.0725,-0.147 0.16497,-0.2488 0.87922,-0.9686 l 0.79821,-0.8043 -0.93828,-0.9358 c -0.97625,-0.9737 -1.04412,-1.0305 -1.23185,-1.0317 -0.19618,0 -0.22609,0.026 -2.20636,2.01 -1.64003,1.6431 -1.89644,1.9093 -1.9321,2.0056 -0.047,0.1269 -0.036,0.2565 0.0319,0.3764 0.0703,0.1242 3.80167,3.8417999 3.90513,3.8906999 0.11193,0.053 0.29752,0.055 0.39731,0 0.0413,-0.021 0.34167,-0.303 0.66752,-0.627 l 0.59246,-0.5891999 0.37548,0.3753999 0.37548,0.3755 -0.81549,0.8098 c -0.77229,0.767 -0.8246,0.814 -0.98743,0.8876 -0.22256,0.1005 -0.48311,0.12 -0.6897,0.052 z m 3.34499,-4.1819999 c 0.078,-0.022 0.18347,-0.1135 0.55007,-0.4749 0.55448,-0.5466 0.60402,-0.6295 0.52838,-0.8842 -0.0337,-0.1134 -0.0836,-0.1707 -0.62555,-0.7175 l -0.58896,-0.5943 -0.57029,0.5696 c -0.68645,0.6855 -0.73198,0.7555 -0.66022,1.0151 0.0209,0.076 0.11451,0.1835 0.48653,0.5599 0.55376,0.5603 0.6216,0.6009 0.88004,0.5263 z"
     id="path1" />
  <path
     style="fill:#f9f9f9;stroke-width:5.46438"
     d="m 690.36145,708.58393 c -3.97591,-0.96448 -10.48193,-3.47718 -14.45784,-5.58376 -9.9178,-5.25482 -274.35108,-270.9847 -279.22224,-280.59135 -5.52024,-10.88672 -5.14383,-34.64068 0.73138,-46.15706 2.55291,-5.00412 24.78183,-29.78706 49.39759,-55.07318 24.61576,-25.28613 44.75593,-46.91793 44.75593,-48.07067 0,-2.08496 -34.57102,-36.60718 -85.97514,-85.85381 -25.02058,-23.97044 -27.62202,-25.80832 -36.5306,-25.80832 -7.54614,0 -12.07865,2.00237 -21.25378,9.3895 -21.45745,17.2759 -214.95421,213.3447 -217.65407,220.54718 -5.79297,15.45409 -5.03787,16.36954 103.21464,125.13147 56.52749,56.79349 108.02523,107.48626 114.43943,112.6506 12.96894,10.44183 22.95135,12.08882 32.98238,5.44169 3.27682,-2.17142 20.32899,-18.15398 37.89371,-35.51682 l 31.93586,-31.56882 20.55911,20.55911 20.55911,20.55911 -45.66711,45.10585 c -30.36061,29.98747 -49.16711,46.69415 -56.10942,49.84455 -12.59543,5.71576 -32.51359,6.25875 -44.58403,1.2154 C 334.27419,700.16583 75.965822,442.52357 65.281316,425.43186 55.966939,410.5319 55.116287,393.15019 62.941179,377.61484 70.513298,362.58137 332.92422,100.31499 345.78313,94.9287 c 5.39412,-2.259463 15.78844,-3.999459 23.6041,-3.951295 11.25819,0.06938 15.92949,1.409877 24.09638,6.914804 5.57198,3.755811 69.44422,65.979101 141.93834,138.273981 C 675.36349,375.72311 677.0026,377.61983 677.0026,400 c 0,19.34701 -6.52552,28.5387 -55.69103,78.44508 l -46.372,47.07078 82.83826,82.86436 c 75.31219,75.33595 82.52569,83.24294 79.39769,87.03127 -7.60198,9.20678 -33.32492,16.44465 -46.81407,13.17244 z M 546.5052,468.91547 c 11.43947,-5.93113 57.558,-55.16831 59.36037,-63.37446 2.66807,-12.14756 -3.52976,-21.47887 -38.09053,-57.34824 l -32.5042,-33.73494 -26.92214,26.50603 c -37.50328,36.92359 -45.6981,47.53402 -45.6981,59.16867 0,6.9841 1.93634,11.63752 7.68068,18.45831 14.31009,16.99171 27.21135,30.10663 41.23961,41.92258 15.0741,12.69685 22.98244,14.59889 34.93431,8.40205 z"
     id="path2"
     transform="scale(0.0175)" />
</svg>
