<?xml version="1.0" encoding="UTF-8" standalone="no"?>
<!-- Uploaded to: SVG Repo, www.svgrepo.com, Transformed by: SVG Repo Mixer Tools -->

<svg
   height="800px"
   width="800px"
   version="1.1"
   id="_x32_"
   viewBox="0 0 512 512"
   xml:space="preserve"
   fill="#f1f1f1"
   stroke="#f1f1f1"
   sodipodi:docname="mushroom.svg"
   inkscape:version="1.4.2 (ebf0e940d0, 2025-05-08)"
   xmlns:inkscape="http://www.inkscape.org/namespaces/inkscape"
   xmlns:sodipodi="http://sodipodi.sourceforge.net/DTD/sodipodi-0.dtd"
   xmlns="http://www.w3.org/2000/svg"
   xmlns:svg="http://www.w3.org/2000/svg"><defs
   id="defs1" /><sodipodi:namedview
   id="namedview1"
   pagecolor="#ffffff"
   bordercolor="#000000"
   borderopacity="0.25"
   inkscape:showpageshadow="2"
   inkscape:pageopacity="0.0"
   inkscape:pagecheckerboard="0"
   inkscape:deskcolor="#d1d1d1"
   showgrid="false"
   inkscape:zoom="1.015"
   inkscape:cx="400.49261"
   inkscape:cy="400"
   inkscape:window-width="1910"
   inkscape:window-height="1026"
   inkscape:window-x="0"
   inkscape:window-y="0"
   inkscape:window-maximized="1"
   inkscape:current-layer="_x32_" />

<g
   id="SVGRepo_bgCarrier"
   stroke-width="0" />

<g
   id="SVGRepo_tracerCarrier"
   stroke-linecap="round"
   stroke-linejoin="round" />

<g
   id="SVGRepo_iconCarrier"> <style
   type="text/css"
   id="style1"> .st0{fill:#000000;} </style> <g
   id="g1"> <path
   class="st0"
   d="M449.469,110.076C366.072,76.721,319.373,0,255.996,0C192.619,0,145.927,76.721,62.531,110.076 c-56.854,22.748-76.72,80.055-30.022,126.754c36.889,36.897,111.242,55.038,175.385,61.04 c-1.51,46.071-6.614,75.586-21.974,108.512c-19.72,42.254-5.64,92.962,42.254,104.228c47.896,11.267,75.778-48.14,81.695-101.416 c3.38-30.42,3.717-75.026,0.406-111.939c62.68-6.568,133.498-24.71,169.215-60.426C526.19,190.131,506.323,132.825,449.469,110.076 z"
   id="path1" /> </g> </g>

<path
   style="fill:#e6e6e6;stroke-width:2.2342"
   d="m 364.61552,797.97712 c -20.292,-3.14279 -39.50411,-12.23893 -54.18034,-25.65216 -28.84557,-26.36325 -39.32785,-71.80116 -26.65136,-115.52672 1.36744,-4.71678 5.51629,-15.54667 9.21966,-24.06642 20.07766,-46.18949 28.29162,-82.09734 31.60207,-138.15054 1.70036,-28.79108 1.7018,-30.54612 0.025,-30.54513 -0.81281,4.8e-4 -7.46305,-0.68269 -14.77832,-1.51816 C 186.11205,448.38577 91.33506,412.76524 46.760208,363.63873 0.56201921,312.72312 -0.19220828,252.69004 44.803351,207.88177 60.281232,192.46832 76.664395,182.21071 103.94089,170.85535 145.06489,153.7352 178.60093,132.21428 245.81281,79.812548 295.15805,41.340547 310.57931,30.736932 334.50526,18.827884 360.0499,6.1131378 376.99439,1.6755712 400,1.6755712 c 22.99935,0 39.93752,4.4346296 65.49474,17.1473598 23.64528,11.761689 41.88569,24.309397 89.1498,61.326777 65.71952,51.471702 101.29472,74.168882 143.68923,91.674552 27.7255,11.44849 48.29572,25.2536 62.88268,42.20192 39.26123,45.61686 35.75758,102.92102 -9.2328,151.00781 -36.61363,39.1335 -103.52448,69.0794 -194.83749,87.19936 -18.01294,3.57445 -52.16048,8.84118 -67.31069,10.38163 l -6.71627,0.68289 0.54284,3.57274 c 2.96254,19.49837 4.09273,113.15699 1.73727,143.96683 -1.88647,24.67534 -3.85185,40.3461 -7.03872,56.12268 -14.17923,70.19412 -47.14998,119.32356 -86.90166,129.49147 -7.54906,1.93093 -19.74917,2.62428 -26.84341,1.52553 z"
   id="path2"
   transform="scale(0.64)" /><path
   style="fill:#f2f2f2;stroke-width:2.2342"
   d="m 363.5468,796.44747 c -1.08375,-0.27927 -5.51724,-1.3959 -9.85222,-2.48138 -9.28817,-2.32577 -23.32259,-8.75517 -32.1405,-14.72408 -14.73062,-9.97127 -27.27593,-26.29664 -34.03417,-44.28912 -5.6599,-15.06835 -6.73725,-21.89061 -6.68652,-42.34205 0.0607,-24.48631 1.55944,-30.66784 15.61371,-64.40056 15.84558,-38.03217 23.64378,-68.80886 27.61804,-108.99846 2.01986,-20.42572 3.7652,-51.86591 3.01114,-54.24177 -0.72795,-2.29355 -0.20145,-2.18461 -23.628,-4.88885 C 183.55228,446.24102 86.462793,408.42974 45.214128,359.51248 21.927161,331.89621 12.146362,306.36056 13.582617,276.92913 14.78163,252.35921 24.530991,231.4185 44.288999,210.97471 60.197333,194.51422 73.208984,186.0788 102.95567,172.94128 148.62855,152.77002 177.37038,134.59154 238.42365,87.261226 292.98457,44.963964 311.61369,32.106113 335.30536,20.3933 362.66829,6.8654733 375.21444,3.6117716 400,3.615482 c 25.19322,0.00377 36.24785,2.8636915 64.03941,16.567497 24.20431,11.934968 44.05282,25.400645 87.409,59.300264 66.30441,51.842517 101.23339,74.242267 145.59592,93.369757 40.30587,17.37841 63.84066,36.80552 78.24139,64.58542 21.95807,42.35845 11.87626,89.84191 -27.50247,129.53151 -45.56671,45.92642 -131.48513,77.90718 -250.18284,93.12364 -8.63505,1.10697 -15.78666,2.11512 -15.89247,2.24034 -0.1058,0.12521 0.20882,3.16178 0.69917,6.74794 2.99435,21.89881 3.27457,127.92179 0.41112,155.54525 -4.32617,41.73418 -11.79562,72.50558 -24.62246,101.4355 -15.39643,34.72545 -38.30735,59.31025 -62.91727,67.51404 -5.88152,1.96062 -10.25983,2.65503 -18.71921,2.96891 -6.07312,0.22533 -11.92875,0.1812 -13.01249,-0.0981 z"
   id="path3"
   transform="scale(0.64)" /><path
   style="fill:#f9f9f9;stroke-width:2.2342"
   d="m 364.03941,798.76488 c 0,-0.45354 -1.66256,-0.54968 -3.69458,-0.21364 -2.87941,0.47617 -3.36851,0.36414 -2.21675,-0.50774 1.16561,-0.88237 0.8271,-0.99114 -1.60226,-0.51482 -1.93805,0.37998 -3.5819,0.12818 -4.43349,-0.67914 -0.74438,-0.70567 -2.86726,-1.33393 -4.71751,-1.39615 -1.85026,-0.0622 -3.84533,-0.76566 -4.4335,-1.5632 -1.67277,-2.26828 -5.19109,-3.80022 -7.07098,-3.07884 -0.99181,0.3806 -1.46532,0.25926 -1.12666,-0.28869 0.3213,-0.51986 -1.3704,-1.98211 -3.75933,-3.24943 -2.38892,-1.26732 -4.06229,-2.75922 -3.7186,-3.31534 0.36002,-0.58251 0.14123,-0.71218 -0.51616,-0.30589 -1.46574,0.90587 -13.12318,-7.21576 -12.29066,-8.5628 0.34311,-0.55518 0.16223,-0.72412 -0.40196,-0.37543 -1.22904,0.75959 -3.50486,-1.68624 -2.50209,-2.689 0.38518,-0.38519 -0.0169,-0.4251 -0.89355,-0.0887 -1.10175,0.42278 -2.61347,-0.66621 -4.89608,-3.52697 -1.81621,-2.27621 -3.18037,-4.55605 -3.03148,-5.06628 0.14889,-0.51023 -0.11855,-0.68712 -0.59432,-0.39308 -1.24674,0.77053 -7.32084,-8.04504 -6.48029,-9.40507 0.4283,-0.693 0.27336,-0.87336 -0.39527,-0.46012 -1.36018,0.84064 -5.47905,-6.87264 -4.50853,-8.44296 0.44638,-0.72228 0.23117,-0.82498 -0.62278,-0.29721 -0.95538,0.59046 -1.13111,0.35365 -0.65612,-0.88416 0.35681,-0.92985 0.24823,-1.4431 -0.2413,-1.14055 -0.48951,0.30255 -1.66238,-1.47227 -2.60635,-3.94403 -1.2138,-3.17827 -1.96781,-4.11763 -2.57523,-3.20827 -0.58933,0.88226 -0.80195,0.51277 -0.67741,-1.17721 0.0998,-1.35468 0.10577,-3.34976 0.0132,-4.4335 -0.14293,-1.67328 -0.32751,-1.74758 -1.22391,-0.49261 -0.83635,1.17087 -0.94673,0.98696 -0.53145,-0.88541 0.66771,-3.01055 -0.3249,-8.11538 -1.44357,-7.42401 -0.46773,0.28908 -0.62695,-0.93733 -0.35382,-2.72535 0.40617,-2.65888 0.31442,-2.89208 -0.50374,-1.2805 -0.7539,1.48499 -0.8885,0.63546 -0.54632,-3.44828 0.24973,-2.98029 0.13722,-4.39421 -0.25,-3.14206 -0.38723,1.25217 -0.70405,-5.46619 -0.70405,-14.9297 0,-9.9773 0.37349,-16.97589 0.88897,-16.6578 0.51352,0.31688 0.60772,-1.21016 0.22306,-3.61571 -0.47728,-2.98474 -0.3504,-3.96929 0.44792,-3.4759 0.79106,0.4889 0.91,-0.23954 0.4105,-2.5138 -0.53606,-2.44065 -0.4098,-3.02077 0.53094,-2.43936 0.92298,0.57042 1.06906,0.10455 0.57919,-1.84719 -0.40749,-1.62359 -0.25053,-2.61 0.41532,-2.61 0.62203,0 0.80843,-0.82536 0.44499,-1.97045 -0.38306,-1.20688 -0.17705,-1.97044 0.53162,-1.97044 0.65724,0 0.89497,-0.68291 0.55036,-1.58096 -0.77611,-2.02249 1.47489,-9.71358 2.40328,-8.21142 0.95065,1.53819 3.00022,-4.61232 2.21706,-6.65316 -0.37304,-0.97214 -0.21823,-1.36434 0.39012,-0.98835 1.16816,0.72196 3.56897,-3.94082 2.72893,-5.30004 -0.3098,-0.50126 -0.10768,-0.91139 0.44917,-0.91139 0.55685,0 0.72934,-0.73776 0.38333,-1.63945 -0.44731,-1.16566 -0.26551,-1.41474 0.62908,-0.86185 0.92767,0.57334 1.08783,0.24081 0.60964,-1.26581 -0.43781,-1.37944 8.3e-4,-2.69281 1.34994,-4.04193 1.10041,-1.10041 1.74123,-2.66889 1.426,-3.49036 -0.32624,-0.85018 0.0804,-1.7424 0.94536,-2.07433 0.83482,-0.32034 1.27673,-1.21078 0.98204,-1.97874 -0.2947,-0.76796 -0.0189,-1.3963 0.61297,-1.3963 0.63182,0 0.87476,-0.44335 0.53987,-0.98522 -0.3349,-0.54187 -0.13939,-0.98522 0.43446,-0.98522 0.57385,0 0.99087,-0.33252 0.9267,-0.73892 -0.0642,-0.4064 -0.0277,-0.96059 0.081,-1.23153 0.10873,-0.27093 0.41265,-1.82061 0.67536,-3.44371 0.26272,-1.6231 1.18168,-3.72902 2.04213,-4.6798 0.86045,-0.95079 1.21978,-1.7287 0.7985,-1.7287 -0.42126,0 -0.21401,-0.66503 0.46056,-1.47784 0.67457,-0.8128 0.89624,-1.47783 0.49261,-1.47783 -0.40364,0 -0.18196,-0.66502 0.49261,-1.47783 0.67457,-0.81281 0.89624,-1.47783 0.49261,-1.47783 -0.40364,0 -0.12541,-0.73317 0.61828,-1.62925 0.74369,-0.8961 1.24133,-1.7828 1.10586,-1.97045 -0.13547,-0.18765 -0.19525,-0.6737 -0.13286,-1.08011 0.0624,-0.4064 0.0263,-1.56324 -0.0802,-2.57075 -0.11436,-1.08192 0.2379,-1.56513 0.86049,-1.18035 0.64813,0.40057 0.82813,0.0626 0.46737,-0.87753 -0.325,-0.84695 -0.0706,-1.529 0.57029,-1.529 0.7177,0 0.91386,-0.76612 0.51662,-2.01773 -0.70931,-2.23483 1.16268,-5.19916 2.68799,-4.25647 0.55147,0.34083 0.50317,-0.27512 -0.11163,-1.42391 -1.36811,-2.55633 -1.39874,-4.43566 -0.0588,-3.60754 0.67098,0.41469 0.79144,-0.29614 0.34892,-2.05924 -0.48973,-1.95126 -0.35411,-2.49375 0.49261,-1.97044 0.84672,0.5233 0.98235,-0.0192 0.49262,-1.97045 -0.48974,-1.95126 -0.35412,-2.49375 0.49261,-1.97044 0.83928,0.5187 0.98843,0.005 0.52948,-1.8235 -0.39255,-1.56406 -0.22733,-2.5456 0.4285,-2.5456 0.66044,0 0.85735,-1.22079 0.51647,-3.20197 -0.43692,-2.53932 -0.3175,-2.89613 0.57701,-1.72414 0.88977,1.16576 0.99478,0.80168 0.49729,-1.72414 -0.3794,-1.92624 -0.23163,-3.20197 0.37088,-3.20197 0.59162,0 0.79189,-1.51222 0.4893,-3.69458 -0.39841,-2.87345 -0.26703,-3.36613 0.59111,-2.21675 0.84747,1.13509 0.94902,0.58796 0.43784,-2.35917 -0.50941,-2.93695 -0.37718,-3.6588 0.56372,-3.07728 0.94482,0.58392 1.07032,-0.18102 0.54238,-3.30585 -0.46905,-2.77627 -0.33281,-4.06558 0.42959,-4.06558 0.73517,0 0.90276,-1.13912 0.49073,-3.33545 -0.37042,-1.97453 -0.19773,-3.59996 0.42324,-3.98375 0.64204,-0.3968 0.81552,-2.35161 0.44718,-5.03894 -0.40993,-2.99069 -0.24223,-4.39063 0.52594,-4.39063 0.78392,0 0.93832,-1.61168 0.50643,-5.28635 -0.34676,-2.95043 -0.21507,-5.53742 0.29802,-5.85453 0.50563,-0.3125 0.78934,-3.91885 0.63047,-8.01413 -0.15887,-4.09528 0.0629,-7.44597 0.49277,-7.44597 0.42989,0 0.76156,-3.65764 0.73705,-8.12808 -0.0245,-4.47045 0.34104,-10.23399 0.81235,-12.80788 0.74698,-4.07929 0.64265,-4.67981 -0.81296,-4.67981 -0.97399,0 -1.38787,-0.45632 -0.99314,-1.095 0.48297,-0.78147 -0.76982,-0.89604 -4.37536,-0.40016 -3.56454,0.49026 -5.0521,0.35975 -5.0521,-0.4432 0,-0.79564 -1.3761,-0.93168 -4.57378,-0.45216 -3.57213,0.53567 -4.40445,0.41191 -3.8006,-0.56514 0.60491,-0.97876 -0.24514,-1.09832 -3.9058,-0.54937 -3.55128,0.53255 -4.5011,0.41382 -3.94089,-0.49261 0.5602,-0.90644 -0.38962,-1.02517 -3.94089,-0.49261 -3.49924,0.52473 -4.49681,0.40689 -3.95649,-0.46737 0.53835,-0.87108 -0.34552,-0.98859 -3.46775,-0.4611 -3.1796,0.5372 -4.0113,0.41838 -3.44828,-0.49261 0.56303,-0.91098 -0.26868,-1.0298 -3.44828,-0.49261 -3.22927,0.54558 -4.01601,0.42602 -3.43054,-0.52131 0.57989,-0.93827 -0.0902,-1.0698 -2.83097,-0.55563 -2.4018,0.45058 -3.5907,0.3067 -3.5907,-0.43453 0,-0.71872 -1.03868,-0.88002 -2.95567,-0.45897 -2.33174,0.51214 -2.95566,0.31337 -2.95566,-0.94161 0,-1.26746 -0.38732,-1.38349 -1.90568,-0.57088 -2.52276,1.35013 -4.29359,1.29761 -3.42877,-0.10171 0.49787,-0.80557 -0.34588,-0.92666 -2.9945,-0.42977 -2.70337,0.50715 -3.4974,0.38395 -2.97483,-0.4616 0.51931,-0.84026 -0.15653,-0.96246 -2.48933,-0.4501 -2.33279,0.51237 -3.00864,0.39017 -2.48933,-0.4501 0.52064,-0.84241 -0.30947,-0.98376 -3.07871,-0.52424 -2.90787,0.48253 -3.44713,0.37384 -2.31373,-0.46633 1.13309,-0.83994 0.55854,-0.95485 -2.46305,-0.49261 -3.06261,0.46852 -3.61153,0.35356 -2.46306,-0.51583 1.15506,-0.87437 0.75157,-0.97506 -1.8474,-0.46098 -2.47875,0.49031 -3.13707,0.35331 -2.58609,-0.53818 0.55196,-0.89311 -0.0717,-1.01784 -2.46306,-0.49261 -2.39133,0.52522 -3.01501,0.40049 -2.46305,-0.49261 0.55196,-0.89311 -0.0717,-1.01784 -2.46306,-0.49262 -2.39159,0.52529 -3.01504,0.40054 -2.46293,-0.4928 0.53076,-0.85879 0.14873,-1.0087 -1.35457,-0.53158 -1.22085,0.38749 -2.09383,0.23637 -2.09383,-0.36242 0,-0.61485 -1.28498,-0.80589 -3.20197,-0.47606 -2.53932,0.43691 -2.89613,0.3175 -1.72414,-0.57702 1.16193,-0.88682 0.7407,-0.99708 -1.97044,-0.51578 -2.70649,0.48048 -3.13036,0.37023 -1.97044,-0.51252 1.17731,-0.89598 0.91009,-1.00028 -1.31408,-0.5129 -2.01484,0.44151 -2.59093,0.28659 -2.0698,-0.55661 0.52331,-0.84673 -0.0192,-0.98234 -1.97045,-0.49261 -1.95126,0.48973 -2.49374,0.35411 -1.97044,-0.49261 0.52331,-0.84673 -0.0192,-0.98235 -1.97044,-0.49261 -1.95127,0.48973 -2.49375,0.35411 -1.97045,-0.49261 0.51825,-0.83855 0.007,-0.98901 -1.80959,-0.53298 -3.02541,0.75932 -5.88581,-0.1449 -4.99874,-1.5802 0.41097,-0.66497 -0.25643,-0.80221 -1.89782,-0.39024 -3.0254,0.75932 -5.8858,-0.1449 -4.99873,-1.5802 0.41097,-0.66497 -0.25643,-0.80222 -1.89782,-0.39025 -2.78585,0.69921 -5.90876,-0.10776 -5.1525,-1.3314 0.60012,-0.97101 -4.18372,-2.24225 -5.46288,-1.4517 -0.51694,0.3195 -0.93991,0.0815 -0.93991,-0.52886 0,-0.6832 -0.80479,-0.85432 -2.09382,-0.4452 -1.55148,0.49242 -1.8924,0.33865 -1.31621,-0.59364 0.55289,-0.89459 0.30382,-1.0764 -0.86185,-0.62909 -0.90169,0.34601 -1.63945,0.16981 -1.63945,-0.39157 0,-0.5924 -0.87861,-0.74184 -2.09382,-0.35614 -1.55148,0.49241 -1.8924,0.33865 -1.31621,-0.59365 0.55289,-0.89459 0.30382,-1.07639 -0.86185,-0.62908 -0.90169,0.34601 -1.63945,0.24135 -1.63945,-0.23257 0,-1.28597 -8.69943,-4.00505 -10.54631,-3.29633 -1.06755,0.40966 -1.36264,0.23044 -0.88721,-0.53882 0.39181,-0.63397 0.21669,-1.15265 -0.38914,-1.15265 -0.60583,0 -0.8868,-0.34742 -0.62436,-0.77203 0.26242,-0.42463 -1.04146,-0.72165 -2.89753,-0.66006 -1.85606,0.0616 -3.37466,-0.22616 -3.37466,-0.63941 0,-0.41326 -0.89313,-1.03486 -1.98475,-1.38132 -1.09161,-0.34647 -1.73361,-1.03629 -1.42666,-1.53294 0.30695,-0.49665 -0.0819,-0.65742 -0.86414,-0.35725 -1.97843,0.7592 -26.41315,-10.37113 -25.6124,-11.66678 0.36877,-0.59667 0.16044,-0.7349 -0.49607,-0.32915 -1.4098,0.87131 -18.110541,-8.11112 -17.354668,-9.33415 0.302713,-0.4898 -0.03027,-0.66773 -0.739969,-0.3954 -2.414995,0.92672 -28.844126,-17.67051 -27.713028,-19.50067 0.348737,-0.56426 0.194468,-0.75424 -0.342821,-0.42218 -1.424965,0.88068 -5.39246,-2.1941 -4.604809,-3.56868 0.366878,-0.64027 0.304249,-0.83545 -0.139172,-0.43376 -1.134867,1.0281 -3.565085,-1.2078 -2.789162,-2.56614 0.351845,-0.61594 0.276918,-0.79122 -0.166503,-0.38952 -1.018281,0.92248 -3.61399,-1.14673 -2.895948,-2.30855 0.293113,-0.47426 -0.06927,-0.63122 -0.8053,-0.34877 -1.376272,0.52812 -8.351931,-7.23391 -7.852214,-8.73741 0.148463,-0.44668 -0.143255,-0.55679 -0.648262,-0.24467 -1.012079,0.6255 -13.103631,-14.95897 -17.311827,-22.31274 -1.463638,-2.55769 -2.336625,-5.17545 -1.939971,-5.81725 0.441632,-0.71457 0.299437,-0.90625 -0.366826,-0.49448 -1.366818,0.84474 -3.500777,-2.97799 -2.751862,-4.92963 0.306455,-0.79861 0.170941,-1.2133 -0.301143,-0.92154 -1.157134,0.71516 -5.312092,-9.1105 -4.617724,-10.91999 0.348627,-0.90851 0.136602,-1.17768 -0.579182,-0.73531 -0.768009,0.47466 -0.951334,0.0179 -0.573207,-1.42802 0.30576,-1.16922 0.153923,-1.87741 -0.337415,-1.57374 -0.491337,0.30366 -0.893341,-0.16524 -0.893341,-1.04201 0,-0.87677 -0.46112,-1.30913 -1.024711,-0.96082 -0.670987,0.41469 -0.791433,-0.29615 -0.348923,-2.05924 0.473312,-1.88583 0.341996,-2.48627 -0.438286,-2.00402 -0.775999,0.4796 -0.963375,-0.29799 -0.617467,-2.56241 0.402652,-2.63589 0.310266,-2.87815 -0.488316,-1.28051 -0.731961,1.46437 -0.845277,0.70525 -0.4412,-2.95566 0.299047,-2.70936 0.179602,-4.41495 -0.265436,-3.79021 -0.445037,0.62475 -0.809159,-4.98573 -0.809159,-12.46774 0,-7.48201 0.380962,-13.36809 0.846581,-13.08019 0.465619,0.28791 0.550279,-1.41688 0.188134,-3.7884 -0.509252,-3.33487 -0.403971,-3.97703 0.464634,-2.83405 0.897771,1.18135 1.004502,0.93428 0.532013,-1.23153 -0.361233,-1.65583 -0.174853,-2.70936 0.479314,-2.70936 0.594998,0 0.812194,-0.81349 0.489041,-1.83164 -0.709202,-2.23451 0.322033,-5.25939 1.537017,-4.5085 0.485092,0.29981 0.881986,-0.17225 0.881986,-1.04902 0,-0.90828 0.466164,-1.30602 1.083515,-0.92447 0.787873,0.48693 0.787873,0.11723 0,-1.35492 -1.31292,-2.45321 -1.386502,-3.44288 -0.20153,-2.71052 1.058729,0.65432 2.312961,-2.20025 1.52612,-3.47338 -0.304673,-0.49298 -0.05827,-0.89632 0.54756,-0.89632 0.605831,0 0.850909,-0.40549 0.544616,-0.90107 -0.306291,-0.49559 -0.213287,-1.04978 0.206676,-1.23153 0.419964,-0.18175 2.665326,-3.55493 4.989695,-7.49595 2.531892,-4.29289 4.659091,-6.89791 5.306124,-6.49802 0.662723,0.40959 0.798085,0.21133 0.350346,-0.51313 -0.911148,-1.47427 1.267364,-4.25466 2.659503,-3.39427 0.609108,0.37644 0.729415,0.15441 0.296162,-0.54662 -0.911148,-1.47427 1.267364,-4.25466 2.659503,-3.39427 0.564198,0.34869 0.754127,0.19439 0.422065,-0.34289 -0.332062,-0.53729 0.09955,-1.981 0.959144,-3.20824 1.227803,-1.75293 1.743847,-1.94578 2.406881,-0.89948 0.634832,1.00182 0.878247,1.02668 0.982228,0.10035 0.369083,-3.28805 0.556641,-3.67745 1.660855,-3.44828 0.652709,0.13547 1.075906,-0.28773 0.940438,-0.94044 -0.135468,-0.65271 0.418719,-1.2069 1.231527,-1.23153 0.812808,-0.0246 1.484622,-0.48813 1.492919,-1.03 0.02805,-1.83173 1.592212,-3.48455 2.66827,-2.8195 0.599101,0.37025 0.788991,0.20724 0.4318,-0.37071 -1.124188,-1.81898 18.245996,-16.63624 20.183055,-15.43908 0.677399,0.41866 0.879365,0.27868 0.495069,-0.34312 -0.830163,-1.34323 11.78163,-8.47583 13.31319,-7.52928 0.634476,0.39213 0.862164,0.266 0.519805,-0.28795 -0.335065,-0.54215 1.591507,-2.01649 4.281273,-3.27631 2.689764,-1.25981 4.890481,-2.67374 4.890481,-3.14205 0,-0.46831 0.940202,-0.34829 2.089337,0.2667 1.264927,0.67698 1.842405,0.71864 1.463526,0.1056 -0.344195,-0.55692 0.267327,-1.29605 1.358939,-1.64251 1.091613,-0.34647 1.98475,-1.06958 1.98475,-1.60691 0,-0.53734 0.40334,-0.72771 0.89631,-0.42303 1.3824,0.85437 4.10041,-0.51157 3.36991,-1.69354 -0.40672,-0.6581 -0.0372,-0.81482 0.99088,-0.4203 0.9017,0.34601 1.63945,0.17352 1.63945,-0.38333 0,-0.55684 0.4129,-0.75726 0.91756,-0.44537 1.11824,0.69112 7.94944,-2.44292 7.94944,-3.64707 0,-0.47349 0.44335,-0.58689 0.98522,-0.25199 0.54187,0.3349 0.98522,0.11322 0.98522,-0.49261 0,-0.60583 0.42442,-0.8392 0.94315,-0.51861 1.09382,0.67602 16.79084,-6.9853 16.79084,-8.19518 0,-0.77653 0.63368,-0.95578 4.85377,-1.37301 1.04396,-0.10321 1.74101,-0.44185 1.549,-0.75254 -0.19202,-0.31069 1.8356,-1.79299 4.50582,-3.29399 2.67023,-1.50101 4.85496,-3.17305 4.85496,-3.71564 0,-0.54259 0.42718,-0.72252 0.94929,-0.39984 0.5221,0.32268 1.77825,-0.20534 2.79146,-1.17339 1.01319,-0.96804 2.47025,-1.89527 3.2379,-2.06052 0.76765,-0.16524 1.83908,-0.87427 2.38095,-1.5756 0.54187,-0.70133 1.42857,-1.45282 1.97045,-1.66999 0.54187,-0.21717 0.86737,-0.7484 0.72333,-1.18053 -0.14405,-0.43213 0.52097,-0.6538 1.47783,-0.49261 1.05425,0.1776 1.6268,-0.23979 1.45313,-1.05932 -0.18494,-0.87269 0.26512,-1.14068 1.26882,-0.75553 0.90466,0.34716 1.7891,-0.0121 2.11397,-0.8587 0.3072,-0.80055 0.95857,-1.20833 1.4475,-0.90615 0.48891,0.30216 1.15394,-0.14119 1.47783,-0.98523 0.32388,-0.84405 0.93932,-1.31804 1.36764,-1.05333 0.42831,0.26471 1.04375,-0.20928 1.36763,-1.05333 0.32389,-0.84404 0.98892,-1.28739 1.47783,-0.98522 0.48893,0.30218 1.15395,-0.14117 1.47784,-0.98522 0.32389,-0.84404 1.0385,-1.25674 1.58803,-0.91711 0.54952,0.33962 1.26413,-0.0731 1.58803,-0.91712 0.32388,-0.84405 0.95853,-1.30616 1.41031,-1.02694 0.45179,0.27921 1.22105,-0.20641 1.70947,-1.07916 0.48842,-0.87275 1.29154,-1.65795 1.78469,-1.74486 0.49316,-0.0869 0.78582,-0.49054 0.65035,-0.89695 -0.13547,-0.4064 0.61837,-0.73891 1.67519,-0.73891 1.05681,0 2.31588,-0.70475 2.79792,-1.56611 0.48205,-0.86136 1.27994,-1.63722 1.77309,-1.72414 0.49316,-0.0869 0.78582,-0.49054 0.65035,-0.89695 -0.13546,-0.4064 0.66657,-0.73891 1.78229,-0.73891 1.11572,0 1.75458,-0.44335 1.41968,-0.98522 -0.33489,-0.54188 -0.13938,-1.04064 0.43447,-1.10838 0.57385,-0.0677 1.50288,-0.17857 2.06452,-0.2463 0.56165,-0.0677 1.43217,-0.78818 1.93451,-1.60099 0.50235,-0.81281 1.48371,-1.49798 2.18082,-1.52261 0.6971,-0.0246 1.15662,-0.57882 1.02115,-1.23153 -0.13547,-0.65271 0.19705,-1.24216 0.73892,-1.3099 0.54187,-0.0677 1.53941,-0.19872 2.21675,-0.29108 0.67734,-0.0924 1.12069,-0.70197 0.98522,-1.35468 -0.13547,-0.65271 0.19704,-1.24217 0.73892,-1.3099 l 1.97044,-0.24631 c 0.54187,-0.0677 0.95905,-0.5665 0.92707,-1.10837 -0.032,-0.54188 0.96556,-1.24615 2.21675,-1.56506 1.25119,-0.31889 2.16406,-1.09476 2.02859,-1.72414 -0.13546,-0.62936 0.19705,-1.19972 0.73892,-1.267454 0.54187,-0.06773 1.46431,-0.178571 2.04986,-0.246305 0.58556,-0.06773 1.62069,-0.883586 2.3003,-1.813007 0.97833,-1.337953 1.5048,-1.440536 2.52816,-0.492611 0.93162,0.862938 1.11013,0.872377 0.6393,0.03379 -0.35927,-0.639897 -0.19539,-1.446394 0.36415,-1.792214 0.55955,-0.345821 0.72675,-1.098997 0.37155,-1.673725 -0.37318,-0.60382 -0.068,-0.843468 0.72284,-0.567673 1.80079,0.627974 8.95894,-5.010524 8.10828,-6.386913 -0.41236,-0.66722 -0.0724,-0.841091 0.90851,-0.464675 0.86207,0.330812 2.11421,-0.05737 2.78252,-0.86263 0.6683,-0.805258 1.83212,-1.227333 2.58625,-0.937944 0.75414,0.289389 1.13354,0.141683 0.84312,-0.328235 -0.67924,-1.099034 8.28492,-8.120257 9.44888,-7.400887 0.48282,0.298399 0.75603,0.08877 0.60715,-0.465847 -0.38235,-1.424195 18.94108,-16.003142 20.18892,-15.231936 0.56788,0.350972 0.73587,0.1636 0.37575,-0.419098 -0.75154,-1.21601 16.41083,-14.178614 18.25856,-13.790548 0.66581,0.139837 1.23073,-0.272252 1.25536,-0.915752 0.0419,-1.094239 10.47847,-9.174827 11.84986,-9.174827 0.34456,0 0.30756,0.554187 -0.0822,1.231527 -0.41175,0.715512 -0.33291,0.887517 0.18816,0.410509 0.49328,-0.45156 0.9523,-1.227422 1.02003,-1.724138 0.0677,-0.496716 0.17857,-1.346469 0.24631,-1.888341 0.0677,-0.541872 0.67734,-0.874385 1.35468,-0.738917 0.67734,0.135468 1.10256,-0.362273 0.94493,-1.106089 -0.17383,-0.820252 0.26625,-1.140248 1.11842,-0.813241 0.77275,0.296536 2.34339,-0.118108 3.49029,-0.921429 1.14691,-0.803322 2.59636,-1.144725 3.221,-0.758673 0.63904,0.39495 0.87021,0.272313 0.5286,-0.280425 -1.02915,-1.665191 25.13176,-15.598348 27.54717,-14.671471 0.7861,0.301654 1.19055,0.162212 0.89879,-0.309872 -0.29177,-0.472083 1.79112,-1.8527 4.62863,-3.068037 2.83752,-1.215337 5.47502,-2.7082444 5.86115,-3.3175727 0.38612,-0.6093284 2.36053,-1.1567295 4.38759,-1.216447 2.02705,-0.059717 3.8383,-0.5668395 4.025,-1.1269378 0.1867,-0.5600983 1.27423,-0.7739128 2.41672,-0.4751435 1.50587,0.3937947 1.86545,0.2004893 1.30721,-0.7027507 -0.56723,-0.9178115 -0.21859,-1.0709414 1.32378,-0.5814147 1.25791,0.3992461 2.09382,0.2372279 2.09382,-0.4058306 0,-0.665849 0.98641,-0.8228108 2.61,-0.4153149 1.90782,0.4788313 2.41185,0.3344453 1.87347,-0.5366773 -0.54793,-0.8865702 0.23438,-1.0467999 3.05502,-0.6257145 2.91357,0.4349586 3.33527,0.339242 1.82111,-0.4133467 -1.44035,-0.7159069 -0.38017,-0.8496734 3.94089,-0.4972376 3.25123,0.2651776 5.12851,0.1387063 4.17174,-0.2810471 -0.95678,-0.41975364 5.02844,-0.77784123 13.30049,-0.79575039 8.70054,-0.0188369 14.00189,0.29452019 12.57703,0.74341559 -1.63049,0.5136815 -0.86402,0.6181523 2.26755,0.3090669 3.28139,-0.323873 4.52593,-0.1357469 4.06251,0.6140904 -0.46809,0.7573724 0.62279,0.8838763 3.64378,0.4225544 3.33486,-0.5092512 3.97702,-0.403971 2.83404,0.4646348 -1.18135,0.8977704 -0.93428,1.0045019 1.23153,0.532012 1.65583,-0.361233 2.70936,-0.1748523 2.70936,0.4793144 0,0.6220344 0.82536,0.8084262 1.97044,0.4449895 1.20689,-0.3830519 1.97045,-0.1770448 1.97045,0.5316267 0,0.6363617 0.66502,0.9018273 1.47783,0.5899237 0.81281,-0.3119037 1.47783,-0.090229 1.47783,0.4926108 0,0.5828396 0.66503,0.8045145 1.47784,0.4926109 0.90258,-0.3463523 1.47783,-6.309e-4 1.47783,0.8881626 0,1.2010915 0.33887,1.2436264 1.94027,0.2435365 1.64722,-1.0286998 2.2493,-0.8800301 3.98617,0.9842791 1.51969,1.6311942 2.73108,2.0469042 4.70997,1.6162982 1.8826,-0.4096563 2.26464,-0.2989224 1.30238,0.377496 -1.09068,0.766693 -0.94077,1.0908 0.75322,1.628454 1.16321,0.369188 1.86379,1.077603 1.55684,1.574255 -0.30695,0.496652 0.0814,0.657592 0.8631,0.357643 2.55313,-0.97973 36.75521,17.461599 35.6629,19.228989 -0.27904,0.451497 0.25306,0.760122 1.18243,0.685834 0.92937,-0.07429 1.70046,0.382172 1.71354,1.014356 0.0131,0.632184 0.42736,1.518883 0.92064,1.970444 0.52107,0.477008 0.59991,0.305003 0.18815,-0.41051 -0.95751,-1.663868 -0.0224,-1.548981 2.88206,0.354073 1.33096,0.87208 2.13356,2.048956 1.78356,2.61528 -0.37197,0.601855 -0.16073,0.73571 0.50841,0.32216 1.32621,-0.819645 17.1726,9.992081 16.42293,11.205085 -0.27131,0.438995 0.27779,0.737391 1.22024,0.663102 1.0507,-0.08282 1.5865,0.436589 1.38513,1.342763 -0.18063,0.812808 -0.0115,1.16092 0.37584,0.773581 0.89728,-0.897279 4.60246,1.034872 3.96439,2.067313 -0.26228,0.424372 0.10969,0.771586 0.8266,0.771586 1.58504,0 17.32906,12.046592 17.32906,13.25939 0,0.474166 0.33576,0.751283 0.74614,0.615815 1.23064,-0.406242 17.00728,12.225693 16.43194,13.156616 -0.29241,0.473123 0.0854,0.62345 0.83951,0.334061 0.75413,-0.289389 1.91795,0.132686 2.58625,0.937944 0.66855,0.805561 1.95821,1.198268 2.8672,0.873084 0.90866,-0.325063 1.31864,-0.223852 0.91105,0.224915 -1.16174,1.27912 2.19695,4.365245 4.0356,3.708091 0.89736,-0.320729 1.3029,-0.220785 0.90121,0.222098 -1.13466,1.250979 1.17931,3.404508 2.93446,2.730994 1.01166,-0.388209 1.32421,-0.207946 0.88148,0.508397 -0.63941,1.034582 8.06362,8.418648 10.26314,8.707748 0.51535,0.0677 1.38035,0.17857 1.92222,0.2463 0.54187,0.0677 0.87438,0.65719 0.73891,1.3099 -0.13546,0.65271 0.30789,1.26232 0.98523,1.35468 0.67734,0.0924 1.67487,0.22335 2.21674,0.29109 0.54188,0.0677 0.87439,0.65719 0.73892,1.3099 -0.13547,0.65271 0.30788,1.26231 0.98522,1.35468 0.67734,0.0924 1.64942,0.22335 2.16018,0.29108 0.51076,0.0677 0.75029,1.04932 0.53229,2.1813 -0.29863,1.55064 -0.0943,1.80748 0.82853,1.04158 1.17641,-0.97634 3.88003,-0.10264 3.70601,1.19761 -0.0463,0.34583 0.19879,0.59091 0.54462,0.54462 0.34581,-0.0463 0.99467,0.50791 1.44189,1.23153 0.44722,0.72363 1.27265,1.3711 1.83429,1.43883 0.56164,0.0677 1.43905,0.17857 1.94981,0.2463 0.51076,0.0677 0.75029,1.04933 0.53229,2.18131 -0.31874,1.65503 -0.13026,1.8373 0.96226,0.93059 1.05373,-0.87453 1.58202,-0.72839 2.35408,0.65121 0.5475,0.97832 1.2483,1.66793 1.55736,1.53246 1.40388,-0.61537 2.51076,-0.13833 2.28605,0.98522 -0.13839,0.6919 0.51601,1.10311 1.49342,0.93846 0.95685,-0.1612 1.62188,0.0605 1.47783,0.49261 -0.14404,0.43213 0.1416,0.8568 0.63477,0.94371 0.49315,0.0869 1.29626,0.87211 1.78469,1.74486 0.48841,0.87276 1.25767,1.35837 1.70946,1.07916 0.45179,-0.27922 1.08644,0.1829 1.41032,1.02695 0.32389,0.84404 1.0385,1.25674 1.58803,0.91711 0.54953,-0.33963 1.26414,0.0731 1.58803,0.91711 0.32388,0.84405 0.93932,1.31804 1.36763,1.05333 0.42832,-0.26471 1.0301,0.17372 1.3373,0.97427 0.32487,0.84659 1.20932,1.20585 2.11398,0.8587 1.0037,-0.38515 1.45376,-0.11716 1.26881,0.75553 -0.17366,0.81952 0.39889,1.23691 1.45314,1.05932 1.00882,-0.16995 1.6297,0.24397 1.47783,0.98522 -0.15586,0.76075 0.47619,1.15189 1.56111,0.9661 1.04219,-0.17849 1.55785,0.11683 1.20393,0.68948 -0.74874,1.21149 2.37839,2.98586 4.14671,2.35288 0.69428,-0.24851 1.13763,-0.0778 0.98522,0.37944 -0.1524,0.4572 0.0554,0.94212 0.46183,1.07759 0.4064,0.13546 1.64178,1.14917 2.74529,2.25268 1.10351,1.10351 2.43356,1.74237 2.95566,1.41969 0.52211,-0.32268 0.94929,-0.12856 0.94929,0.43137 0,1.40329 5.10908,3.86376 6.78739,3.26873 0.81429,-0.2887 1.09881,-0.0486 0.70245,0.59272 -0.73266,1.18547 8.60823,6.39651 9.63155,5.37319 0.33693,-0.33694 0.6126,-0.10174 0.6126,0.52264 0,1.60314 11.40349,7.17394 13.24143,6.46866 0.89416,-0.34311 1.76911,0.065 2.12444,0.99101 0.33228,0.86592 1.00105,1.3291 1.48613,1.0293 0.4851,-0.29981 0.88199,-0.14675 0.88199,0.34012 0,1.32817 4.68832,3.20136 6.38396,2.55068 0.82752,-0.31754 1.73036,0.0809 2.04575,0.90279 0.33749,0.87946 1.32667,1.27187 2.45939,0.97567 1.17314,-0.30679 2.12634,0.10777 2.50266,1.08843 0.3343,0.87117 1.00472,1.33866 1.4898,1.03886 0.48509,-0.29981 0.88199,-0.14675 0.88199,0.34013 0,1.20247 4.84869,3.33608 5.98516,2.63371 0.50126,-0.3098 0.91139,-0.14755 0.91139,0.36056 0,0.50812 1.32442,1.47244 2.94314,2.14294 1.61873,0.67049 2.65861,1.67949 2.31083,2.24218 -0.34777,0.56271 -0.16047,0.7315 0.41623,0.37508 0.5767,-0.35642 1.79075,-0.36322 2.69788,-0.0151 1.33153,0.51095 1.39613,0.81424 0.33522,1.57397 -0.96217,0.689 -0.82574,0.78228 0.50935,0.34829 2.18934,-0.71167 9.69201,3.25063 8.82167,4.6589 -0.33263,0.53819 -0.11746,0.67736 0.47814,0.30926 1.28707,-0.79546 11.27109,5.11198 10.56647,6.25207 -0.26746,0.43276 0.27411,0.72606 1.20348,0.65177 0.92937,-0.0743 1.70046,0.52937 1.71353,1.34146 0.0131,0.8121 0.68879,1.47712 1.5016,1.47783 2.06745,0.002 8.96829,5.44428 8.29156,6.53926 -0.30595,0.49502 -0.16988,0.7782 0.30236,0.62931 1.51918,-0.47899 7.33817,5.06346 6.58891,6.2758 -0.41904,0.678 -0.28155,0.88294 0.33619,0.50116 2.05931,-1.27273 16.75675,17.05225 15.41626,19.2212 -0.42101,0.68121 -0.26326,0.86057 0.39763,0.45212 0.63582,-0.39296 1.74382,0.57668 2.64058,2.31083 0.8498,1.64334 1.97705,2.98788 2.50501,2.98788 0.52796,0 0.8561,0.33251 0.72919,0.73891 -0.44809,1.43506 4.40455,12.0413 5.26572,11.50907 0.48036,-0.29688 0.80381,0.26183 0.71877,1.24159 -0.28759,3.31305 0.1532,5.34864 1.03956,4.80083 1.31277,-0.81134 2.16208,2.1966 1.4365,5.08755 -0.45602,1.81696 -0.30556,2.32784 0.53298,1.8096 0.8432,-0.52113 0.99812,0.055 0.55661,2.0698 -0.48287,2.20356 -0.37882,2.48048 0.49376,1.31408 0.84422,-1.1285 0.9629,-0.31335 0.50206,3.44827 -0.33193,2.70936 -0.23938,4.41426 0.20566,3.78866 0.44504,-0.62559 0.80916,4.98478 0.80916,12.4675 0,7.48272 -0.36412,13.09309 -0.80916,12.4675 -0.44504,-0.6256 -0.56448,1.0793 -0.26543,3.78866 0.40407,3.66091 0.29076,4.42003 -0.4412,2.95566 -0.79858,-1.59764 -0.89097,-1.35538 -0.48832,1.28051 0.3459,2.26442 0.15854,3.04201 -0.61746,2.56241 -0.78029,-0.48225 -0.9116,0.11819 -0.43829,2.00402 0.40991,1.63323 0.30418,2.46289 -0.26876,2.10879 -0.5195,-0.32107 -1.23836,0.75403 -1.59749,2.3891 -0.38648,1.75967 -1.08441,2.7062 -1.71022,2.31943 -0.63273,-0.39105 -0.77022,-0.18897 -0.3424,0.50327 0.97558,1.57851 -1.30546,8.18677 -2.55857,7.41231 -0.59531,-0.36793 -0.54888,0.23005 0.11407,1.46875 0.615,1.14915 0.74757,2.08934 0.29461,2.08934 -0.45296,0 -1.82398,2.05917 -3.04672,4.57593 -3.41841,7.03612 -12.05737,20.11233 -12.93083,19.57251 -0.42841,-0.26478 -1.38336,0.26383 -2.12209,1.17469 -0.92379,1.13901 -0.95864,1.42509 -0.11164,0.91622 2.04501,-1.2286 1.40124,0.266 -1.86553,4.33106 -1.70339,2.11962 -3.54528,3.57686 -4.09311,3.23827 -0.54783,-0.33857 -0.71634,-0.16299 -0.37445,0.39018 0.78963,1.27767 -2.66158,4.48176 -3.75704,3.48802 -0.4493,-0.40758 -0.51363,-0.21218 -0.14295,0.43423 0.86237,1.50387 -6.00556,8.46365 -7.46306,7.56286 -0.60783,-0.37565 -0.80364,-0.21909 -0.44723,0.35759 0.78915,1.27688 -1.69186,3.47131 -2.79489,2.47206 -0.44342,-0.40169 -0.5166,-0.22359 -0.16262,0.39581 0.37568,0.65736 -2.12197,3.34194 -5.99968,6.44876 -9.91798,7.94626 -12.9134,9.86544 -14.17794,9.08391 -0.69822,-0.43152 -0.87868,-0.27756 -0.46301,0.39502 0.85525,1.38382 -6.91756,6.43497 -8.44737,5.48951 -0.6395,-0.39525 -0.82674,-0.23691 -0.4468,0.37784 1.28189,2.07415 -36.50422,21.77828 -39.0032,20.3388 -0.6863,-0.39533 -0.94196,-0.37878 -0.56812,0.0368 0.78375,0.87124 -1.33068,3.49632 -2.33,2.89272 -0.96099,-0.58044 -5.73886,1.74675 -5.73886,2.79526 0,0.48688 -0.40212,0.6367 -0.8936,0.33296 -0.49148,-0.30375 -3.39637,0.40549 -6.45533,1.57609 -3.99355,1.52824 -5.20001,2.38615 -4.27882,3.04264 0.88453,0.63036 0.57,0.757 -1.01283,0.40779 -1.26266,-0.27858 -4.1247,0.13879 -6.36008,0.92748 -2.23538,0.78869 -4.66128,1.20491 -5.39089,0.92493 -0.7296,-0.27997 -1.05569,-0.0708 -0.72463,0.46488 0.33105,0.53567 0.0216,0.98073 -0.68774,0.98903 -0.9483,0.0111 -0.89849,0.29298 0.18815,1.06491 1.13797,0.80839 0.85474,0.91389 -1.23152,0.45875 -1.49015,-0.32508 -2.70936,-0.23828 -2.70936,0.19289 0,0.43117 -1.73808,0.76079 -3.8624,0.73246 -2.12431,-0.0283 -3.67216,0.2563 -3.43967,0.63248 0.23249,0.37618 -0.91508,0.9778 -2.55015,1.33692 -1.63507,0.35912 -2.74088,1.02831 -2.45735,1.48708 0.63819,1.0326 -3.08251,2.30707 -4.38507,1.50203 -0.52181,-0.32249 -2.11963,-0.29247 -3.55071,0.0667 -1.97137,0.49478 -2.28082,0.87475 -1.27684,1.56776 0.86157,0.59471 0.16186,0.6846 -2.00009,0.25695 -2.12615,-0.42056 -3.10518,-0.3017 -2.71501,0.3296 0.85885,1.38966 -1.99592,2.28474 -5.12179,1.60585 -2.11352,-0.45901 -2.34037,-0.35019 -1.15324,0.55327 1.15881,0.8819 0.76001,0.9827 -1.8474,0.46695 -2.38148,-0.47107 -3.127,-0.33702 -2.6268,0.47232 0.49433,0.79984 -0.0884,0.93258 -1.99413,0.45428 -1.95126,-0.48973 -2.49376,-0.35412 -1.97045,0.49261 0.5233,0.84672 -0.0192,0.98234 -1.97044,0.49261 -1.95126,-0.48973 -2.49375,-0.35412 -1.97044,0.49261 0.5233,0.84672 -0.0192,0.98235 -1.97045,0.49261 -1.95126,-0.48973 -2.49375,-0.35412 -1.97044,0.49261 0.52112,0.84321 -0.055,0.99812 -2.0698,0.55661 -2.23856,-0.49053 -2.49901,-0.38611 -1.31408,0.52684 1.16145,0.89486 0.66611,1.00393 -2.31373,0.50946 -2.64771,-0.43935 -3.58878,-0.30106 -3.11942,0.45838 0.45969,0.74381 -0.21031,0.89418 -2.11977,0.47577 -2.23856,-0.49053 -2.499,-0.38612 -1.31408,0.52683 1.16145,0.89486 0.66611,1.00394 -2.31372,0.50946 -2.76924,-0.45951 -3.59936,-0.31816 -3.07872,0.52425 0.51931,0.84027 -0.15653,0.96246 -2.48933,0.4501 -2.29878,-0.5049 -3.00514,-0.3845 -2.50376,0.42675 0.48988,0.79264 -0.0617,0.93929 -1.84719,0.49115 -1.66722,-0.41844 -2.5456,-0.23508 -2.5456,0.53141 0,0.7982 -0.97897,0.95529 -3.07893,0.49406 -2.28811,-0.50255 -2.88907,-0.36908 -2.33979,0.51968 0.55196,0.89311 -0.0717,1.01783 -2.46305,0.49261 -2.3328,-0.51236 -3.00864,-0.39016 -2.48933,0.4501 0.52257,0.84555 -0.27146,0.96875 -2.97483,0.4616 -2.7539,-0.51663 -3.50233,-0.3919 -2.95567,0.49261 0.54665,0.88451 -0.20177,1.00924 -2.95566,0.49261 -2.7539,-0.51663 -3.50233,-0.3919 -2.95567,0.49261 0.54665,0.88451 -0.20177,1.00924 -2.95566,0.49261 -2.7539,-0.51663 -3.50233,-0.3919 -2.95567,0.49261 0.54665,0.88451 -0.20177,1.00924 -2.95566,0.49261 -2.82244,-0.52949 -3.50943,-0.40339 -2.92796,0.53744 0.58547,0.94733 -0.20127,1.06689 -3.43054,0.52131 -3.1796,-0.53719 -4.01131,-0.41837 -3.44828,0.49261 0.56302,0.91099 -0.26868,1.02981 -3.44828,0.49261 -3.17959,-0.53719 -4.0113,-0.41837 -3.44827,0.49261 0.56302,0.91099 -0.26868,1.02981 -3.44828,0.49261 -3.2234,-0.54459 -4.01545,-0.4251 -3.43268,0.51786 0.584,0.94492 -0.29038,1.06863 -3.8162,0.5399 -3.14528,-0.47167 -4.57378,-0.33855 -4.57378,0.4262 0,0.69875 -1.53409,0.99582 -4.12772,0.79928 -3.60272,-0.27301 -4.31837,0.022 -5.62666,2.3191 -1.27265,2.23457 -1.30016,3.00332 -0.18223,5.09219 0.91748,1.71433 1.11198,4.09885 0.64148,7.86459 -0.45065,3.60695 -0.30811,5.63118 0.42863,6.08651 0.76566,0.47321 0.95415,4.65235 0.61521,13.64145 -0.26874,7.12757 -0.18471,11.18583 0.18675,9.01834 0.37146,-2.16748 0.60032,16.89656 0.50857,42.36454 -0.0917,25.46798 -0.28793,46.52709 -0.43598,46.79802 -0.31915,0.5841 -0.80386,14.64383 -0.80933,23.47628 -0.003,4.49137 -0.32461,6.03665 -1.1509,5.52598 -0.85152,-0.52626 -0.96459,0.75142 -0.43884,4.95934 0.53639,4.29312 0.42201,5.49137 -0.4715,4.93916 -0.88945,-0.54971 -1.01735,0.57451 -0.51984,4.56931 0.50346,4.04263 0.39608,4.94815 -0.45308,3.82058 -0.85368,-1.1336 -0.97235,-0.33037 -0.50943,3.44827 0.46081,3.76138 0.34212,4.57669 -0.50195,3.44828 -0.84969,-1.13592 -0.96768,-0.49232 -0.51002,2.78186 0.42561,3.04475 0.2771,4.06295 -0.52069,3.5699 -0.79831,-0.49339 -0.94615,0.53798 -0.51921,3.62207 0.44506,3.21489 0.34798,3.81057 -0.38158,2.34144 -0.7428,-1.49579 -0.86146,-0.90246 -0.49261,2.46305 0.3747,3.41893 0.25689,3.98257 -0.5148,2.46306 -0.8186,-1.61189 -0.91034,-1.37887 -0.50409,1.2805 0.32447,2.12411 0.13847,3.0296 -0.53662,2.61238 -0.68676,-0.42444 -0.84342,0.63282 -0.46719,3.153 0.44337,2.96988 0.34794,3.36454 -0.44036,1.82111 -0.78684,-1.54058 -0.88864,-1.11072 -0.46664,1.97044 0.41219,3.00958 0.28415,3.59165 -0.5418,2.46306 -0.82851,-1.13207 -0.93834,-0.67106 -0.46939,1.97044 0.39994,2.25284 0.29506,2.98888 -0.30253,2.12314 -0.6968,-1.00947 -1.06288,-0.73475 -1.53673,1.15324 -0.34212,1.3631 -0.32542,3.25136 0.0371,4.19611 0.42656,1.11159 0.28071,1.48385 -0.41332,1.05492 -0.64495,-0.3986 -1.33277,0.52226 -1.72543,2.31003 -0.35912,1.63507 -1.05888,2.72198 -1.55502,2.41535 -0.49729,-0.30735 -0.45622,0.61518 0.0915,2.05589 1.13823,2.99374 -0.75382,11.31361 -2.08355,9.16204 -0.49885,-0.80714 -0.97452,-0.32494 -1.41647,1.43592 -0.36598,1.45815 -1.10569,2.37906 -1.64382,2.04648 -0.56531,-0.34938 -0.52093,0.25011 0.1051,1.41987 1.33247,2.48975 1.52389,5.35946 0.22031,3.30302 -0.67071,-1.05806 -0.9497,-1.01007 -1.43182,0.24631 -0.32934,0.85824 -0.3157,2.29819 0.0303,3.19989 0.38165,0.99455 0.23238,1.39426 -0.37945,1.01612 -1.16816,-0.72196 -3.56897,3.94082 -2.72893,5.30004 0.3098,0.50126 0.14755,0.91139 -0.36056,0.91139 -0.50812,0 -1.47244,1.32441 -2.14294,2.94314 -0.67049,1.61873 -1.51598,2.75965 -1.87885,2.53539 -0.36286,-0.22427 -0.65976,0.36866 -0.65976,1.3176 0,4.40807 -18.4871,32.41314 -21.02489,31.8494 -0.67027,-0.14888 -0.92063,0.21156 -0.55633,0.80101 0.84763,1.3715 -2.42119,5.04498 -3.75546,4.22036 -0.55317,-0.34188 -0.72047,-0.15999 -0.37178,0.40421 0.78915,1.27688 -1.69186,3.47131 -2.79489,2.47206 -0.44343,-0.4017 -0.51028,-0.21335 -0.14857,0.41856 0.82232,1.43657 -9.21673,10.38887 -10.91795,9.73605 -0.67255,-0.25808 -1.1173,0.0455 -0.98833,0.67453 0.12897,0.62908 -2.97126,2.98619 -6.88939,5.23804 -3.91814,2.25184 -6.79992,4.43637 -6.40395,4.85449 0.39597,0.41813 -0.24259,0.46472 -1.41901,0.10353 -1.31265,-0.40301 -2.63351,-0.12727 -3.41918,0.71379 -0.70413,0.75378 -2.13852,1.14605 -3.18752,0.87173 -1.30858,-0.3422 -1.67838,-0.12839 -1.17807,0.68114 0.532,0.8608 0.001,0.99713 -1.96333,0.50412 -1.82862,-0.45896 -2.48027,-0.33229 -2.03092,0.39476 0.45094,0.72963 -0.52195,0.90627 -3.05502,0.55471 -2.25205,-0.31257 -3.24226,-0.17634 -2.51279,0.34571 0.71783,0.51373 -2.96145,0.86156 -9.1133,0.86156 -5.67444,0 -10.31717,-0.37108 -10.31717,-0.82461 z m 12.56158,-1.44099 c -1.49015,-0.22574 -3.92858,-0.22574 -5.41872,0 -1.49015,0.22574 -0.27094,0.41044 2.70936,0.41044 2.98029,0 4.1995,-0.1847 2.70936,-0.41044 z M 280.04094,686.94581 c -0.18957,-3.65763 -0.34466,-0.66502 -0.34466,6.65025 0,7.31527 0.15509,10.30788 0.34466,6.65025 0.18956,-3.65764 0.18956,-9.64286 0,-13.3005 z m 205.91559,-136.4532 c -0.17561,-5.55419 -0.3193,-1.00985 -0.3193,10.09852 0,11.10838 0.14369,15.65271 0.3193,10.09853 0.17562,-5.55419 0.17562,-14.64286 0,-20.19705 z m -0.0557,-16.25616 c -0.24782,-0.94827 -0.45057,-0.17241 -0.45057,1.72414 0,1.89655 0.20275,2.67241 0.45057,1.72414 0.2478,-0.94828 0.2478,-2.5 0,-3.44828 z M 12.99802,288.935 c -0.249796,-0.95859 -0.470603,-0.41283 -0.490681,1.21278 -0.02008,1.62562 0.1843,2.40991 0.454175,1.74289 0.269875,-0.66702 0.286303,-1.99707 0.03651,-2.95567 z M 787.352,273.64532 c -0.27331,-0.67734 -0.49694,-0.12315 -0.49694,1.23153 0,1.35468 0.22363,1.90886 0.49694,1.23152 0.27331,-0.67734 0.27331,-1.78571 0,-2.46305 z M 402.72291,2.2621367 c -1.21177,-0.233854 -3.42852,-0.2399058 -4.92611,-0.013448 -1.4976,0.2264574 -0.50616,0.4177926 2.2032,0.4251892 2.70936,0.0074 3.93467,-0.1778869 2.72291,-0.4117412 z"
   id="path4"
   transform="scale(0.64)" /><path
   style="fill:#f9f9f9;stroke-width:2.2342"
   d="m 360.09852,796.85845 c -9.6274,-1.62077 -13.85479,-2.94095 -19.70443,-6.15353 -1.35468,-0.74399 -3.72037,-1.93403 -5.25708,-2.64455 -1.53671,-0.71051 -3.88714,-2.3049 -5.22318,-3.5431 -1.33603,-1.2382 -2.88061,-2.25126 -3.4324,-2.25126 -1.55931,0 -9.80248,-5.93213 -10.39737,-7.48237 -0.29223,-0.76155 -1.14892,-1.38463 -1.90375,-1.38463 -0.75483,0 -1.37243,-0.66502 -1.37243,-1.47783 0,-0.8175 -0.8742,-1.47783 -1.95646,-1.47783 -1.19135,0 -2.97723,-1.54248 -4.56665,-3.94426 -1.43561,-2.16935 -4.102,-5.52604 -5.92531,-7.45932 -1.82332,-1.93327 -3.31513,-4.12835 -3.31513,-4.87795 0,-0.74959 -1.10837,-2.47127 -2.46305,-3.82595 -1.35468,-1.35468 -2.46305,-3.5373 -2.46305,-4.85025 0,-1.31297 -0.64285,-2.92072 -1.42855,-3.57279 -1.7698,-1.4688 -4.78093,-7.95045 -6.42676,-13.83401 -0.68212,-2.43843 -1.6039,-5.54187 -2.0484,-6.89655 -0.44449,-1.35468 -1.35346,-5.69233 -2.01991,-9.63923 -0.92295,-5.46589 -0.93791,-7.44999 -0.0628,-8.32512 1.46012,-1.46012 1.56217,-18.11718 0.11647,-19.01068 -1.19349,-0.73761 -0.62778,-5.72357 2.11537,-18.64387 1.03003,-4.85148 1.87278,-9.77937 1.87278,-10.95088 0,-1.1715 0.82572,-3.18734 1.83492,-4.47962 1.0092,-1.29229 2.14802,-3.45799 2.5307,-4.81267 0.63649,-2.25318 2.52093,-6.74305 4.64634,-11.07038 0.46214,-0.94092 0.84026,-2.42424 0.84026,-3.29626 0,-0.87202 0.63022,-2.76228 1.40048,-4.20056 3.65464,-6.82418 6.48129,-13.53926 6.48129,-15.39718 0,-1.12771 0.60426,-2.9249 1.34279,-3.99374 1.68512,-2.43882 7.52421,-20.34126 7.52421,-23.069 0,-1.21003 0.64198,-2.02707 1.59274,-2.02707 1.15484,0 1.43726,-0.59455 1.02723,-2.16251 -0.31104,-1.18939 0.48814,-6.62043 1.77594,-12.06897 5.54915,-23.47794 7.90627,-42.66051 10.39242,-84.5752 0.83284,-14.04116 0.78828,-17.7707 -0.22415,-18.75708 -0.69503,-0.67716 -6.36221,-1.78703 -12.59374,-2.46639 -21.50169,-2.3441 -47.78513,-6.32112 -48.42274,-7.32697 -0.35171,-0.55486 -1.31337,-0.75023 -2.13702,-0.43416 -1.68564,0.64684 -39.52552,-6.78433 -53.87374,-10.57996 -5.14778,-1.36178 -10.57881,-2.48485 -12.06896,-2.49572 -1.49015,-0.0109 -2.70936,-0.46309 -2.70936,-1.00496 0,-0.54187 -1.55173,-0.98522 -3.44828,-0.98522 -1.89655,0 -3.44827,-0.44335 -3.44827,-0.98522 0,-0.54188 -1.49744,-0.98523 -3.32765,-0.98523 -1.83019,0 -3.87955,-0.66502 -4.55413,-1.47783 -0.67457,-0.81281 -2.03021,-1.47783 -3.01253,-1.47783 -2.58188,0 -24.77994,-7.92455 -26.62169,-9.50376 -0.85548,-0.73352 -2.67992,-1.33368 -4.05433,-1.33368 -1.3744,0 -3.55624,-0.81909 -4.84853,-1.82021 -1.29229,-1.00111 -3.67966,-2.14223 -5.30528,-2.53582 -4.24007,-1.0266 -22.16749,-9.57559 -22.16749,-10.57094 0,-0.46011 -0.71102,-0.83658 -1.58007,-0.83658 -2.27764,0 -15.270439,-7.00053 -15.864105,-8.54759 -0.275345,-0.71755 -1.316193,-1.30462 -2.312994,-1.30462 -2.420186,0 -21.76502,-13.00021 -24.914517,-16.74318 -1.370457,-1.62869 -3.226894,-2.96126 -4.125416,-2.96126 -0.89852,0 -1.865551,-0.8867 -2.148956,-1.97044 -0.283405,-1.08374 -1.128599,-1.97044 -1.878207,-1.97044 -0.749609,0 -1.362925,-0.66503 -1.362925,-1.47784 0,-0.8128 -0.665025,-1.47783 -1.477833,-1.47783 -0.812808,0 -1.477832,-0.66502 -1.477832,-1.47783 0,-0.81281 -0.619098,-1.47783 -1.375772,-1.47783 -0.756674,0 -2.794158,-1.66257 -4.527744,-3.69458 -1.733585,-2.03202 -5.087792,-5.85623 -7.453794,-8.49824 -6.37684,-7.12075 -14.165433,-18.77065 -14.855315,-22.22006 -0.33281,-1.66405 -1.214715,-3.02555 -1.959789,-3.02555 -0.788178,0 -1.35468,-1.03 -1.35468,-2.46305 0,-1.35468 -0.839932,-3.30299 -1.866515,-4.32957 -1.026583,-1.02659 -2.354649,-4.1426 -2.951256,-6.92449 -0.596607,-2.78188 -1.711149,-6.04294 -2.476759,-7.24678 -2.120384,-3.3341 -3.749968,-12.94321 -3.020244,-17.80936 0.414346,-2.76305 0.258514,-4.58631 -0.428267,-5.01077 -2.938008,-1.81579 0.579356,-31.092 4.113424,-34.23743 1.215316,-1.08166 1.656018,-2.3495 1.255422,-3.61166 -0.339508,-1.0697 -0.205017,-2.1997 0.298868,-2.51111 0.503886,-0.31142 1.214363,-1.75438 1.578838,-3.20657 0.847068,-3.37498 9.045405,-16.09748 10.373167,-16.09748 0.552803,0 1.005095,-0.8867 1.005095,-1.97045 0,-1.09469 0.656815,-1.97044 1.477833,-1.97044 0.821018,0 1.477832,-0.87575 1.477832,-1.97044 0,-1.09469 0.656815,-1.97045 1.477833,-1.97045 0.821018,0 1.477832,-0.87575 1.477832,-1.97044 0,-1.32377 0.656815,-1.97044 2.001365,-1.97044 1.10075,0 2.289283,-0.77587 2.641183,-1.72414 0.351901,-0.94828 1.668036,-2.62496 2.924744,-3.72595 1.256709,-1.101 2.284925,-2.54188 2.284925,-3.20197 0,-0.66009 0.351743,-1.20016 0.78165,-1.20016 0.429909,0 3.42252,-2.551 6.650247,-5.66889 3.227728,-3.11788 8.085345,-6.77551 10.794704,-8.12808 2.70936,-1.35255 5.283537,-3.01853 5.720394,-3.70217 0.993142,-1.55419 9.944395,-6.14618 11.980844,-6.14618 0.830821,0 1.510585,-0.40545 1.510585,-0.901 0,-1.58153 8.706721,-5.85299 10.80955,-5.30309 1.10154,0.28806 1.998332,0.0425 1.998332,-0.54719 0,-1.02564 2.624803,-2.38032 16.739773,-8.63952 3.51722,-1.55969 10.54716,-4.94171 15.6221,-7.5156 5.07492,-2.5739 9.59084,-4.67981 10.03534,-4.67981 0.44451,0 3.6116,-1.84729 7.03801,-4.10509 16.75348,-11.0396 20.21337,-13.25598 22.57505,-14.4614 1.40368,-0.71644 4.06378,-2.59458 5.91133,-4.17364 1.84755,-1.57905 3.83284,-2.87204 4.41175,-2.87332 0.5789,-0.001 2.79565,-1.55369 4.9261,-3.44982 2.13046,-1.89613 4.40571,-3.44785 5.05612,-3.44827 0.65042,-4.3e-4 1.53712,-0.59846 1.97045,-1.32895 0.43333,-0.7305 2.78294,-2.61474 5.22137,-4.18719 2.43842,-1.57246 5.53734,-3.85655 6.88648,-5.07577 1.34914,-1.21921 3.0117,-2.21674 3.69458,-2.21674 0.68288,0 1.2416,-0.3682 1.2416,-0.81821 0,-1.67176 12.72773,-10.019233 15.27674,-10.019233 0.69213,0 1.5366,-1.108374 1.8766,-2.463054 0.34001,-1.35468 1.21904,-2.463054 1.95341,-2.463054 0.73438,0 3.04931,-1.570041 5.14431,-3.48898 2.095,-1.91894 4.88232,-3.758347 6.19406,-4.087573 1.31173,-0.329224 3.69292,-2.088258 5.29152,-3.908961 1.5986,-1.820705 3.93344,-3.568107 5.18854,-3.883115 1.25509,-0.31501 2.51729,-1.185914 2.80488,-1.935342 0.49546,-1.291184 15.62373,-13.005896 17.96101,-13.908281 0.60498,-0.233569 3.26507,-2.441143 5.91133,-4.905722 2.64627,-2.46458 6.80646,-5.631166 9.24489,-7.036859 2.43842,-1.405693 6.64263,-4.46303 9.34268,-6.794082 2.70006,-2.331052 5.8035,-4.24108 6.89655,-4.244507 1.13827,-0.0036 2.65215,-1.17528 3.54332,-2.742465 1.00355,-1.764787 3.08064,-3.239426 5.85045,-4.153547 2.36197,-0.779522 5.3129,-2.361133 6.55761,-3.514693 3.13549,-2.905873 21.99786,-12.258495 24.70594,-12.250064 1.21921,0.0038 2.21675,-0.42898 2.21675,-0.961724 0,-1.213331 9.33776,-6.1697786 13.30049,-7.0598514 1.62562,-0.365131 6.50246,-1.5865558 10.83744,-2.7142773 11.40494,-2.9669381 24.94876,-4.6040574 26.36582,-3.1869911 1.436,1.4359983 7.29846,1.4609611 8.17986,0.034831 1.24139,-2.00862264 27.47744,2.1552829 33.96165,5.3900308 1.66225,0.8292431 3.68108,1.2549085 4.48629,0.9459232 0.80521,-0.3089853 2.22335,0.071276 3.15145,0.8450258 0.92809,0.773749 2.79581,1.932675 4.15049,2.575392 1.35468,0.642716 3.12808,1.577525 3.94089,2.077354 0.81281,0.499829 3.91626,1.87841 6.89655,3.063515 8.0171,3.18797 25.62389,13.358885 29.88822,17.265518 2.04544,1.873867 4.581,3.407031 5.63459,3.407031 1.05359,0 1.91562,0.665025 1.91562,1.477833 0,0.812808 0.57473,1.477832 1.27718,1.477832 1.88432,0 10.78665,5.856194 15.35133,10.098523 2.18641,2.032019 4.43797,3.694581 5.00345,3.694581 0.56548,0 1.804,0.6863 2.75227,1.525113 0.94828,0.838812 5.04926,4.004933 9.1133,7.035826 4.06404,3.030892 8.05419,6.115972 8.867,6.855734 0.81281,0.73976 4.24236,3.36995 7.62123,5.844866 3.37888,2.474916 6.98948,5.575456 8.02357,6.890089 1.03409,1.314634 2.51473,2.390244 3.2903,2.390244 1.49602,0 10.38025,6.345242 17.14812,12.247428 2.23494,1.949064 5.44922,4.235026 7.14286,5.079936 1.69363,0.84489 3.07934,1.94704 3.07934,2.44923 0,0.50218 0.67893,0.91306 1.50875,0.91306 0.82982,0 1.76395,0.66503 2.07585,1.47783 0.31191,0.81281 1.13298,1.47784 1.82462,1.47784 0.69163,0 1.50445,0.94428 1.80626,2.0984 0.3758,1.43705 1.05028,1.90595 2.14006,1.48776 0.98266,-0.37708 2.52959,0.32764 4.04444,1.84249 1.34922,1.34921 2.82462,2.45312 3.27866,2.45312 0.45405,0 1.07247,0.94429 1.37427,2.0984 0.36656,1.4017 1.05893,1.90263 2.08535,1.50876 0.84515,-0.32431 1.53661,-0.26104 1.53661,0.1406 0,0.40165 1.54756,1.56368 3.43902,2.58229 1.89146,1.01862 4.85308,3.11451 6.58139,4.65755 1.7283,1.54302 3.72754,2.8055 4.44276,2.8055 0.71521,0 1.30038,0.39284 1.30038,0.87297 0,0.48013 1.46538,1.56832 3.2564,2.41822 1.791,0.84989 4.95541,2.89548 7.03201,4.54576 2.07661,1.65026 4.18761,3.00049 4.69113,3.00049 0.50352,0 2.41281,1.14207 4.24287,2.53793 1.83008,1.39586 5.54815,3.72345 8.26239,5.17242 2.71424,1.44896 9.08444,4.93274 14.156,7.74173 5.07157,2.80899 10.49373,5.42668 12.04926,5.81708 1.55553,0.39042 4.36068,1.7498 6.23367,3.02084 1.87298,1.27105 4.23627,2.31099 5.25176,2.31099 1.68683,0 3.72884,0.82573 7.73091,3.12617 0.81281,0.46722 4.24877,2.15317 7.63547,3.74656 3.3867,1.59338 6.15764,3.25073 6.15764,3.68299 0,0.43227 1.44089,1.36674 3.20197,2.07661 7.32345,2.95202 9.60591,4.13117 9.60591,4.96256 0,0.48291 1.25746,1.1295 2.79435,1.43688 1.5369,0.30738 4.73778,2.18256 7.11307,4.16706 2.3753,1.9845 6.43804,4.99561 9.02831,6.69135 2.59027,1.69574 4.70959,3.64446 4.70959,4.33049 0,0.68602 0.58774,1.24731 1.3061,1.24731 1.58537,0 5.59045,4.10399 5.59045,5.72852 0,0.64241 0.61344,1.16803 1.36319,1.16803 2.26029,0 14.40036,14.78806 14.40036,17.54136 0,0.5116 1.55172,2.62426 3.44827,4.69482 1.89656,2.07056 3.44828,4.26789 3.44828,4.88297 0,0.61508 1.10652,3.29938 2.45893,5.9651 1.35241,2.66573 2.46078,5.59098 2.46305,6.50055 0.002,0.90957 0.59429,2.24393 1.3156,2.96523 1.7983,1.79831 3.08877,9.80107 2.86944,17.7948 -0.10341,3.76861 0.23197,6.65024 0.77397,6.65024 0.5322,0 0.95645,3.23082 0.95645,7.28379 0,10.6656 -3.82382,28.18419 -6.15183,28.18419 -0.4096,0 -0.74472,1.29839 -0.74472,2.88529 0,1.58692 -0.70809,3.59338 -1.57353,4.45882 -0.86544,0.86544 -1.33001,2.2081 -1.03238,2.9837 0.75189,1.95939 -9.88243,19.90614 -14.38395,24.27473 -2.03489,1.97479 -3.6998,4.22383 -3.6998,4.99788 0,1.55261 -3.53318,5.71978 -4.84957,5.71978 -0.45757,0 -1.06382,0.8867 -1.34723,1.97044 -0.2834,1.08375 -1.22181,1.97045 -2.08535,1.97045 -0.86353,0 -1.57006,0.58208 -1.57006,1.2935 0,1.59067 -5.0855,6.58827 -6.70416,6.58827 -0.64769,0 -1.17762,0.66502 -1.17762,1.47783 0,0.81281 -0.47197,1.47783 -1.04883,1.47783 -0.57685,0 -2.2027,1.3713 -3.61297,3.04732 -3.13797,3.72927 -14.86379,12.71623 -16.59161,12.71623 -0.69031,0 -2.58516,1.33005 -4.21078,2.95567 -1.62561,1.62561 -3.63195,2.95566 -4.45853,2.95566 -0.82657,0 -2.60568,1.02208 -3.95359,2.27127 -4.88527,4.52752 -32.4412,18.41839 -36.53735,18.41839 -0.82914,0 -1.50752,0.66502 -1.50752,1.47783 0,0.81281 -0.5194,1.47783 -1.15423,1.47783 -1.42666,0 -13.13476,4.43522 -16.84566,6.38141 -1.50093,0.78717 -5.49108,1.98979 -8.867,2.6725 -3.37592,0.68271 -6.58284,1.81677 -7.12649,2.52013 -0.54364,0.70336 -2.76039,1.53269 -4.92611,1.84296 -4.35407,0.62377 -9.93149,2.85636 -10.8505,4.34336 -0.32593,0.52737 -2.31368,0.95885 -4.4172,0.95885 -2.10353,0 -4.0986,0.44335 -4.4335,0.98523 -0.3349,0.54187 -1.69111,0.98522 -3.01381,0.98522 -1.3227,0 -2.40491,0.44335 -2.40491,0.98522 0,0.54187 -1.13093,0.98522 -2.51317,0.98522 -1.38225,0 -8.58668,1.52374 -16.00985,3.3861 -24.02243,6.02684 -66.28163,13.70832 -90.19538,16.39489 -12.81083,1.43922 -14.94286,2.84723 -14.05652,9.28305 0.29851,2.16749 1.07845,16.51171 1.7332,31.87605 0.91255,21.41394 0.9201,28.36806 0.0323,29.78959 -1.41352,2.26339 -1.52891,6.80727 -0.17289,6.80727 0.54188,0 0.98523,1.74723 0.98523,3.88274 0,2.1355 -0.44335,4.15674 -0.98523,4.49164 -1.39147,0.85998 -1.30157,25.79656 0.0961,26.66038 1.22809,0.75901 0.2126,48.47666 -1.06805,50.18691 -0.40575,0.54187 -1.04071,4.53202 -1.411,8.867 -0.77469,9.06916 -3.80723,28.3557 -6.04159,38.42364 -0.8418,3.7931 -1.78882,8.34821 -2.10452,10.12244 -0.31568,1.77425 -0.95757,3.46298 -1.4264,3.75273 -0.46884,0.28976 -0.85244,1.59556 -0.85244,2.90178 0,1.30621 -0.81334,3.82931 -1.80742,5.60687 -1.20543,2.15552 -1.65919,4.48428 -1.36239,6.99205 0.32868,2.77706 -0.0359,4.24578 -1.39455,5.61773 -3.38068,3.41384 -4.3891,4.90593 -4.15181,6.14314 0.43629,2.27482 -4.83641,15.23216 -7.51562,18.46917 -0.67275,0.81281 -1.68025,2.84415 -2.23889,4.51409 -1.64605,4.92049 -11.99524,20.98781 -16.64284,25.83832 -2.36244,2.46557 -4.29534,5.11008 -4.29534,5.87668 0,0.7666 -0.8867,1.62568 -1.97045,1.90909 -1.08374,0.28341 -1.97044,1.1286 -1.97044,1.87821 0,0.7496 -0.63515,1.36292 -1.41144,1.36292 -0.77629,0 -1.6871,0.86854 -2.02403,1.9301 -0.54091,1.70428 -4.85007,5.52776 -9.48362,8.41473 -0.8697,0.54187 -4.63169,3.09113 -8.35998,5.66503 -3.72829,2.57389 -7.47064,4.6798 -8.31632,4.6798 -0.84569,0 -1.9588,0.38333 -2.47358,0.85184 -0.51477,0.46851 -4.89727,1.66339 -9.73887,2.65528 -6.60878,1.35392 -8.90075,1.50995 -9.19541,0.62599 -0.47389,-1.42167 -7.74245,-1.58409 -8.60266,-0.19223 -0.68989,1.11628 -1.74981,1.09523 -9.35961,-0.18588 z"
   id="path5"
   transform="scale(0.64)" /></svg>
