<?xml version="1.0" encoding="UTF-8" standalone="no"?>
<!-- Created with Inkscape (http://www.inkscape.org/) -->

<svg
   version="1.1"
   id="svg1"
   width="772.23401"
   height="530.11298"
   viewBox="0 0 772.23401 530.11298"
   sodipodi:docname="id10e-tGNN_1755149137523.png"
   inkscape:export-filename="id10e-tGNN_1755149137523.svg"
   inkscape:export-xdpi="96"
   inkscape:export-ydpi="96"
   xmlns:inkscape="http://www.inkscape.org/namespaces/inkscape"
   xmlns:sodipodi="http://sodipodi.sourceforge.net/DTD/sodipodi-0.dtd"
   xmlns="http://www.w3.org/2000/svg"
   xmlns:svg="http://www.w3.org/2000/svg">
  <defs
     id="defs1" />
  <sodipodi:namedview
     id="namedview1"
     pagecolor="#ffffff"
     bordercolor="#000000"
     borderopacity="0.25"
     inkscape:showpageshadow="2"
     inkscape:pageopacity="0.0"
     inkscape:pagecheckerboard="0"
     inkscape:deskcolor="#d1d1d1"
     showgrid="false"
     showguides="true">
    <sodipodi:guide
       position="144.24853,766.81788"
       orientation="0,-1"
       id="guide1"
       inkscape:locked="false" />
    <inkscape:page
       x="0"
       y="0"
       width="772.23401"
       height="530.11298"
       id="page2"
       margin="0"
       bleed="0" />
  </sodipodi:namedview>
  <g
     inkscape:groupmode="layer"
     inkscape:label="Image"
     id="g1"
     transform="translate(-110.99027,-224.75999)">
    <path
       style="fill:#078791;stroke:none"
       d="m 496,476 h 2 c 18.98169,34.07236 52.35376,63.89575 85,84.44232 28.05524,17.65711 59.16888,27.4859 92,30.89105 C 798.30707,604.12231 908.67609,489.03204 878.06073,366 872.85138,345.06555 863.78302,324.82751 851.62207,307 838.21387,287.34399 820.84631,270.37695 801,257.26978 772.02826,238.1358 740.19208,229.01532 706,225.55432 c -31.46692,-3.18512 -65.1261,3.42713 -94,15.91541 -30.46777,13.17761 -58.21411,33.2594 -80.82916,57.53076 C 518.92096,312.14758 509.29767,329.12787 496,341 431.71347,224.62622 261.73569,182.59741 164.01906,281.00897 149.02989,296.10474 136.72298,313.74475 127.71375,333 c -10.15909,21.71283 -16.29651,45.96692 -16.69472,70 -0.40231,24.28027 3.40069,48.37653 12.38345,71 7.86339,19.80432 19.06647,37.93683 33.08113,54 C 251.26598,636.6366 429.952,595.56244 496,476 M 861.00012,239.69763 c -20.75805,3.52979 -16.11712,36.27954 4.99976,33.22272 21.10107,-3.05451 15.83697,-36.76587 -4.99976,-33.22272 m 0.009,2.87305 c 17.36316,-2.99188 22.01624,24.86651 4.98596,27.86383 -17.61731,3.10059 -21.96142,-24.93878 -4.98596,-27.86383 M 855,247 v 19 l 6,1 v -7 l 5,7 h 6 c -3.32465,-12.55096 1.79657,-24.20953 -17,-20 m 7,2 c 5.16498,2.34906 4.48309,6.07025 -1,7 l 1,-7 m -568,41.34375 c 55.9415,-5.401 105.71625,32.17603 138.38239,73.65625 7.48684,9.50696 14.24929,19.65765 20.52102,30 2.46109,4.05847 6.38217,9.08887 6.60452,14 0.54575,12.05463 -16.43185,30.78619 -23.28393,40 C 407.7941,486.22906 367.15192,520.71191 318,525.75104 235.95262,534.1626 157.42259,464.52814 180.20483,379 c 3.62618,-13.61322 10.03064,-26.59698 18.28728,-38 9.70973,-13.40985 22.3813,-24.2511 36.50789,-32.7663 18.19179,-10.96563 38.05136,-15.86743 59,-17.88995 m 392,-9.8e-4 C 770.42554,282.31152 841.38879,370.26434 809.96021,450 c -4.8603,12.33081 -11.97132,23.94934 -20.7934,33.82544 -9.49225,10.62628 -20.53034,20.18133 -33.16681,26.87595 -14.48096,7.67178 -30.58295,13.57595 -47,15.13784 C 649.21912,531.52673 601.1189,500.76865 564.03461,456 c -8.28418,-10.00073 -15.31238,-20.95441 -22.09442,-32 -2.79657,-4.55463 -7.37293,-10.38098 -7.16346,-16 0.48835,-13.09863 17.68616,-31.98468 25.37818,-42 C 592.15454,324.33514 633.0426,295.38055 686,290.34277 M 668,352 c 0,8.66632 -0.0384,17.33368 0.007,25.99988 0.0157,3.00641 0.83923,7.56518 -1.26459,10.0697 -6.50891,7.74866 -26.00989,-1.5871 -34.07562,2.9483 -3.25879,1.8324 -2.65039,6.84229 -2.66455,9.98279 C 629.96161,410.00006 630,419.00049 630,428 l 25.99982,-0.005 c 2.99456,-0.008 7.51141,-0.74579 9.99121,1.36621 7.65576,6.52033 -1.79157,25.57239 3.12176,33.97168 1.89093,3.23255 6.71125,2.65021 9.8888,2.66455 L 705,466 l 1,-38 38,-1 v -36 c -8.698,0 -17.31805,-0.15753 -26,-0.5498 -3.22955,-0.14594 -7.53809,0.84967 -10.19958,-1.49592 C 701.1203,383.06708 705,360.24371 705,352 h -37 m -418,38 -1,38 h 114 l -1,-38 H 250 m 558,255.52185 c -39.30798,5.88953 -47.68109,69.71216 -24.22754,96.20593 10.59229,11.96534 28.19031,14.00403 43.22754,11.75037 38.79755,-5.81464 47.03766,-69.89099 24.19586,-96.20587 C 840.91626,645.42963 822.73138,643.31458 808,645.52185 M 132,753 h 27 l 5,-22 h 31 l 5,22 h 28 c -3.32896,-25.37854 -15.41322,-51.63354 -23.20834,-76 -2.52907,-7.90552 -4.29789,-23.00598 -10.16315,-28.99109 -3.8741,-3.95325 -23.25629,-3.55914 -27.94406,-1 C 160.36174,650.46069 158.0946,667.49634 156.14828,674 148.39529,699.90674 136.55559,726.34729 132,753 m 140,0 v -34 c 21.8002,0.0256 15.39792,20.849 28.85254,31.99109 6.2926,5.211 23.3143,2.00891 31.14746,2.00891 -3.92441,-8.92737 -8.78946,-17.3454 -13.25647,-26 -1.70508,-3.30347 -5.27521,-7.85535 -4.84146,-11.76306 0.52856,-4.7619 7.56222,-9.10462 9.96921,-13.24121 C 329.2999,692.66608 329.85803,681.31128 327.46204,671 321.26093,644.31323 291.50436,646 270,646 c -5.66342,0 -18.40936,-2.36267 -22.99106,1.45508 C 242.47565,651.23254 245,665.63226 245,671 v 58 c 0,5.47363 -2.24501,17.55054 1.45512,21.99109 C 250.42519,755.75555 266.27225,753 272,753 m 78,-107 v 107 c 21.13205,0 48.22083,4.08618 66.99985,-7.72552 25.88476,-16.28107 30.34488,-71.74372 3.97964,-90.01313 C 401.43387,641.71753 372.46579,646 350,646 m 133,0 c -5.72781,0 -21.57483,-2.75549 -25.54489,2.00891 C 453.40536,652.86902 456,666.96008 456,673 c 0,21.51172 -6.71936,57.41913 12.19412,72.84204 18.07019,14.73529 58.06265,11.65698 68.76633,-10.8435 C 544.21515,719.74829 541,699.42334 541,683 c 0,-7.88605 3.71613,-28.78503 -1.45514,-34.99109 -3.28186,-3.93848 -21.83966,-3.76843 -23.87823,1.40881 C 513.70941,654.38831 515,661.73621 515,667 c 0,16.48401 4.07068,39.34357 -1.40112,54.99457 -4.24286,12.13586 -21.02597,14.11346 -27.63007,2.91467 C 479.4079,713.78363 483,694.49353 483,682 v -36 m 81,0 v 22 l 28,1 c -0.83862,14.88782 2.4e-4,30.07648 0,45 -6e-5,4.37915 1.46112,12.57123 -2.66663,15.54492 C 583.81207,733.52252 570.57147,731 564,731 v 22 h 60 c 4.90118,0 17.05225,2.18256 20.54486,-2.00891 C 648.19983,746.60474 645.68304,736.13538 645,731 h -27 v -63 c 6.77948,0 19.35547,2.43591 25.33337,-1.00891 4.586,-2.64276 4.25446,-18.28534 -0.82922,-20.32446 C 635.84344,643.995 625.11011,646 618,646 h -54 m 103,0 v 107 h 25 v -67 h 1 c 5.23022,15.48767 15.14349,30.74622 23.1358,45 3.38324,6.03375 6.17505,14.35925 11.02027,19.33337 3.77673,3.8772 22.69024,5.09632 26.38879,0.65772 C 757.9364,745.72083 755,729.59875 755,723 v -77 h -25 v 62 L 705.81525,664 694.50128,647.00891 667,646 m 149.00049,20.64368 c 23.54779,-1.04608 21.953,42.23718 15.40356,57.33142 -2.41931,5.57568 -7.45086,8.37494 -13.40405,8.63049 -23.4967,1.00867 -20.84259,-41.88306 -15.29535,-56.58209 2.24951,-5.96076 6.97705,-9.09912 13.29584,-9.37982 M 272,698 v -30 c 7.0419,0 16.55243,-1.50537 22.78998,2.45276 7.92056,5.02618 6.79504,20.4187 -0.95178,25.05066 C 287.67151,699.19055 278.87732,698 272,698 m 104,33 v -63 c 8.59033,0 18.65134,-1.04102 25.76749,4.79395 11.09741,9.09936 11.29507,43.00427 0.86612,52.68646 C 395.75101,731.87018 384.69394,730.99927 376,731 m -197,-57 10,36 h -19 z"
       id="path1" />
    <path
       style="fill:#f9f9f9;stroke-width:2.79275"
       d="M 282.0197,589.87751 C 238.13028,586.21682 199.56736,568.94828 168.53521,539.05895 142.32942,513.81825 125.32008,484.93325 117.0815,451.68107 101.77434,389.899 119.14226,327.63412 164.40887,282.01 c 38.27952,-38.58187 86.94133,-57.32103 142.85714,-55.01285 20.72982,0.85572 34.00663,3.02198 53.99622,8.8101 52.22021,15.12072 98.91538,50.08419 128.83044,96.46308 7.14857,11.08278 6.16596,11.61057 25.91632,-13.92058 43.1403,-55.7672 104.04224,-89.67732 166.36214,-92.63023 32.0667,-1.51942 70.0501,6.66354 99.53638,21.44363 61.11266,30.63293 100.48165,93.50642 100.48165,160.47232 0,17.26497 -1.66618,29.46358 -6.27352,45.93013 -9.10717,32.54893 -23.9372,57.39803 -49.02663,82.14869 -27.02206,26.6572 -58.17971,43.67573 -95.09332,51.94066 -11.25526,2.52004 -15.9499,2.85759 -39.2617,2.82297 -22.83559,-0.0339 -28.2566,-0.42467 -39.40887,-2.84062 -16.07,-3.4813 -35.44354,-9.87931 -48.52443,-16.02494 -37.64578,-17.68666 -80.50603,-55.07376 -102.21411,-89.16162 -2.48026,-3.89471 -4.94277,-7.08128 -5.47226,-7.08128 -0.52949,0 -4.41745,5.27654 -8.6399,11.72565 -10.55969,16.12822 -24.22473,32.09766 -37.58032,43.91773 -47.50192,42.04053 -109.88351,63.78492 -168.8744,58.86467 z m 51.72414,-66.46401 c 34.69414,-8.91866 64.68671,-29.15061 92.51536,-62.40761 24.31972,-29.06361 34.66456,-45.81752 33.33799,-53.99224 -0.76226,-4.6973 -12.59591,-24.17818 -24.17352,-39.79513 -10.23193,-13.80177 -36.09323,-39.49634 -48.8902,-48.575 -38.93883,-27.62468 -75.78372,-35.1031 -119.09564,-24.17288 -44.09661,11.12824 -79.22981,46.61744 -89.05427,89.95665 -3.06115,13.50384 -2.74175,38.19363 0.6587,50.91754 8.81929,33.00024 32.34187,61.04053 64.8001,77.24551 10.16856,5.07672 25.37076,10.16842 35.71429,11.96184 4.06404,0.70465 8.77463,1.52895 10.46798,1.8318 7.29823,1.30521 34.19579,-0.52234 43.71921,-2.97048 z m 392.24138,-0.38131 c 20.50428,-5.80756 34.55077,-12.9998 49.26109,-25.2232 41.73745,-34.68135 54.13868,-88.69256 31.39036,-136.71473 -12.88671,-27.20411 -33.09928,-47.23966 -61.0504,-60.51571 -17.06357,-8.10474 -28.29506,-10.50132 -49.1577,-10.48926 -26.01294,0.015 -43.65637,4.28417 -68.34975,16.53842 -24.097,11.9583 -45.88843,31.01731 -69.8277,61.07206 -14.1442,17.75745 -19.62925,26.14922 -22.64786,34.64979 l -2.27751,6.41361 2.85618,5.90166 c 3.44769,7.12389 16.82311,27.7359 24.6077,37.92138 8.54977,11.18663 27.91172,30.77079 38.96406,39.4112 23.80151,18.60738 48.15493,29.56402 75.14797,33.80917 12.88891,2.02702 39.1713,0.5996 51.08356,-2.77439 z"
       id="path2" />
    <path
       style="fill:#f9f9f9;stroke-width:2.79275"
       d="m 249.39061,420.87438 c 0.004,-3.55603 0.36418,-11.86884 0.8015,-18.4729 l 0.79514,-12.00739 h 55.23298 55.23297 v 5.35029 c 0,2.94266 0.36131,11.25547 0.80292,18.47291 l 0.80291,13.12261 h -56.8374 -56.83739 z"
       id="path3" />
    <path
       style="fill:#f9f9f9;stroke-width:2.79275"
       d="m 669.99202,462.74631 c -1.62161,-2.30941 -1.80996,-5.05017 -1.13082,-16.45508 0.76871,-12.90927 0.66572,-13.83327 -1.81874,-16.31774 -2.43962,-2.43962 -3.90347,-2.63359 -19.87497,-2.63359 h -17.24138 l 0.0181,-15.08621 c 0.0118,-9.82855 0.56922,-16.15919 1.59938,-18.16502 1.56974,-3.05647 1.68655,-3.07602 16.08986,-2.69362 21.08034,0.55968 20.46995,1.1963 20.46995,-21.34955 v -17.82875 l 18.16502,-0.002 18.16503,-0.002 -0.37828,14.65173 c -0.45967,17.80434 1.01458,22.73388 7.16686,23.96434 2.193,0.4386 10.29116,0.79746 17.9959,0.79746 h 14.00862 v 17.07398 17.07399 l -5.71376,0.78315 c -3.14256,0.43074 -11.73246,0.78316 -19.08867,0.78316 h -13.37491 v 19.08867 19.08867 h -16.55578 c -15.77145,0 -16.64796,-0.13127 -18.50146,-2.77093 z"
       id="path4" />
    <path
       style="fill:#f9f9f9;stroke-width:0.282395"
       d="m 863.5942,263.50478 c -1.3645,-1.91616 -2.52293,-3.48521 -2.57429,-3.48679 -0.0514,-0.002 -0.0934,1.53817 -0.0934,3.42166 0,2.65532 -0.035,3.42507 -0.15566,3.42694 -0.0856,0.001 -1.4025,-0.20365 -2.92642,-0.4555 l -2.77075,-0.45791 v -9.4397 -9.4397 l 0.46698,-0.12522 c 0.25684,-0.0689 1.19547,-0.25015 2.08585,-0.40284 2.15738,-0.36999 5.6817,-0.40479 6.91132,-0.0683 2.69908,0.73871 4.17514,2.2724 5.03167,5.22812 0.37019,1.27744 0.60534,2.86265 1.01098,6.8152 0.33835,3.29692 0.67176,5.56383 1.05915,7.20135 0.13496,0.57045 0.24537,1.0888 0.24537,1.15188 0,0.0666 -1.21735,0.1147 -2.90496,0.1147 h -2.90495 z m -1.21091,-7.78197 c 2.04743,-0.64784 3.15077,-1.68696 3.15077,-2.96735 0,-0.8361 -0.35041,-1.53071 -1.15625,-2.29203 -0.58727,-0.55482 -2.27721,-1.62617 -2.38892,-1.51446 -0.025,0.025 -0.24795,1.47443 -0.4954,3.22092 -0.24745,1.74648 -0.4807,3.32953 -0.51834,3.51787 -0.0882,0.44113 0.10923,0.44605 1.40814,0.0351 z"
       id="path7" />
    <path
       style="fill:#f9f9f9;stroke-width:0.282395"
       d="m 861.42462,272.96394 c -4.57666,-0.63732 -8.09785,-2.79129 -10.61547,-6.49369 -2.74381,-4.03501 -3.77652,-9.43437 -2.75782,-14.4188 0.97416,-4.76653 4.0761,-8.80061 8.3299,-10.83302 2.32685,-1.11175 4.79869,-1.66658 7.4717,-1.6771 0.95886,-0.004 2.16368,0.0687 2.67735,0.16094 6.24285,1.12157 10.94628,6.09066 12.46813,13.17235 0.36754,1.71032 0.46334,5.12562 0.19176,6.83714 -1.12027,7.06024 -5.80124,11.87154 -12.71004,13.06392 -1.38981,0.23986 -3.98971,0.33668 -5.05551,0.18826 z m 3.92677,-2.37236 c 5.95369,-0.82809 9.93375,-4.60866 11.09689,-10.54068 0.28407,-1.44872 0.28731,-4.29716 0.007,-5.84324 -0.74079,-4.08092 -2.93164,-7.71879 -5.86609,-9.74054 -2.37662,-1.63743 -4.52216,-2.22292 -7.70145,-2.10166 -3.60383,0.13745 -6.35828,1.2623 -8.72713,3.56393 -3.27328,3.1804 -4.62026,8.28155 -3.56268,13.49219 0.31046,1.52963 0.72741,2.69831 1.50762,4.22568 2.62115,5.13133 7.58211,7.73212 13.24618,6.94432 z"
       id="path8" />
    <path
       style="fill:#f9f9f9;stroke-width:3.09826"
       d="m 805.70758,752.78952 c -9.28927,-1.94414 -19.2475,-8.10739 -23.80699,-14.73438 -15.43198,-22.42961 -13.35448,-59.73984 4.45287,-79.97007 9.07452,-10.30919 24.62243,-14.80298 40.96384,-11.83972 11.01428,1.99727 17.31201,5.22343 23.44219,12.00881 13.77873,15.25141 16.01054,49.99788 4.65126,72.41435 -3.74705,7.39443 -13.85337,17.34052 -20.39881,20.07538 -5.83585,2.43837 -22.0273,3.56864 -29.30436,2.04563 z m 21.2571,-22.65577 c 5.33271,-3.49412 7.50768,-10.75728 8.19682,-27.37269 0.48944,-11.80048 0.1249,-16.72494 -1.62895,-22.0053 -3.69782,-11.13307 -11.31298,-16.08948 -21.29774,-13.86188 -9.46126,2.11082 -12.89006,10.97764 -12.88039,33.30854 0.007,16.78256 1.60503,23.15371 7.10541,28.33302 5.89317,5.54916 13.5627,6.14698 20.50485,1.59831 z"
       id="path9" />
    <path
       style="fill:#f9f9f9;stroke-width:3.09826"
       d="m 667.41246,699.32899 v -53.474 l 7.1728,0.86155 c 3.94504,0.47386 10.00612,0.8669 13.46905,0.87343 6.07571,0.0115 6.46301,0.26313 11.0569,7.18469 2.61836,3.94504 10.54426,17.6246 17.6131,30.39903 l 12.85246,23.22622 0.36721,-31.08215 0.36721,-31.08216 h 12.27059 12.27059 v 51.13674 c 0,60.07873 1.0789,55.99078 -14.56866,55.20061 -7.69524,-0.38859 -10.62163,-1.12872 -12.698,-3.21152 -2.92521,-2.93427 -18.18958,-30.37669 -28.48377,-51.20838 l -6.41388,-12.97936 -0.36544,33.81465 -0.36542,33.81465 h -12.27238 -12.27236 z"
       id="path10" />
    <path
       style="fill:#f9f9f9;stroke-width:3.09826"
       d="m 564.94381,742.69633 v -10.10667 l 11.40447,-0.48176 c 7.0075,-0.29602 12.27505,-1.2047 13.66249,-2.35686 1.9739,-1.63917 2.25801,-5.63596 2.25801,-31.76528 V 668.09558 H 578.60629 564.94381 V 657.16559 646.2356 h 38.15737 c 43.5892,0 42.4513,-0.29298 42.4513,10.92999 0,9.74349 -1.79034,10.92999 -16.49258,10.92999 h -12.19864 v 31.42372 31.42372 h 12.70611 c 8.06087,0 13.3055,0.59938 14.34561,1.63949 2.45034,2.45034 2.08445,15.48161 -0.50747,18.07352 -1.84928,1.84929 -7.43747,2.14696 -40.30433,2.14696 h -38.15737 z"
       id="path11" />
    <path
       style="fill:#f9f9f9;stroke-width:3.09826"
       d="m 480.50645,751.2885 c -10.45137,-3.31031 -17.91279,-10.1854 -21.49851,-19.80911 -2.14801,-5.76502 -2.52522,-11.60924 -2.74231,-42.48719 -0.17263,-24.55372 0.23816,-36.78781 1.30742,-38.93808 1.42506,-2.86575 2.60201,-3.1696 13.68529,-3.53318 l 12.12614,-0.39778 -0.97017,33.43057 c -1.07378,37.00089 -0.40263,42.44478 6.02527,48.87268 3.23088,3.23088 5.0299,3.88286 10.7141,3.88286 5.75268,0 7.47167,-0.64043 10.88742,-4.05618 6.08334,-6.08334 7.28772,-15.80292 6.18705,-49.93063 -1.05994,-32.86482 -1.34669,-32.08686 11.82695,-32.08686 13.57001,0 13.04533,-1.66604 12.55214,39.85764 -0.50933,42.88262 -1.45767,47.96684 -10.58241,56.73438 -11.05326,10.62056 -31.61027,14.133 -49.51838,8.46088 z"
       id="path12" />
    <path
       style="fill:#f9f9f9;stroke-width:3.09826"
       d="m 350.44277,699.6691 v -53.4335 l 20.83529,0.0237 c 31.82214,0.0362 44.83159,3.67975 55.16668,15.45035 7.01695,7.99157 10.18431,16.8911 11.02527,30.97839 1.20591,20.20079 -5.55939,39.67076 -17.08905,49.18086 -9.9677,8.22173 -17.34688,9.96506 -45.00415,10.63221 l -24.93404,0.60146 z m 50.4534,27.51333 c 6.7387,-4.91747 8.97842,-11.81819 8.97842,-27.66313 0,-22.24391 -5.22916,-29.88048 -21.55603,-31.48006 -14.4048,-1.41128 -13.28331,-4.07488 -13.28331,31.54866 v 31.17362 l 3.75718,0.43231 c 6.67282,0.76779 18.49452,-1.37762 22.10374,-4.0114 z"
       id="path13" />
    <path
       style="fill:#f9f9f9;stroke-width:3.09826"
       d="m 247.38859,750.65603 c -1.87195,-1.87195 -2.14696,-8.42224 -2.14696,-51.13673 0,-44.2789 0.22326,-49.21303 2.32172,-51.3115 2.06711,-2.0671 5.02628,-2.24668 26.98341,-1.63748 26.41898,0.733 34.21089,2.3141 42.62462,8.64921 6.64713,5.00494 10.42993,14.17849 10.59156,25.68521 0.16722,11.90479 -2.82926,20.41726 -9.44391,26.82843 -2.7044,2.62121 -4.76497,5.96823 -4.76497,7.73982 0,1.71678 4.05023,10.81836 9.0005,20.22572 l 9.00051,17.10428 h -13.47838 c -10.29494,0 -14.23587,-0.53057 -16.68555,-2.24639 -1.76395,-1.23552 -5.86089,-7.96397 -9.10431,-14.95212 -6.18172,-13.31891 -9.95899,-16.9577 -17.60301,-16.9577 h -3.48347 v 17.07811 17.0781 h -10.8324 c -8.02597,0 -11.38863,-0.55622 -12.97936,-2.14696 z m 48.27077,-55.79781 c 6.6132,-5.98487 6.42191,-20.29028 -0.33002,-24.67998 -3.63382,-2.36249 -15.91639,-4.09183 -20.64063,-2.90612 -3.4779,0.8729 -3.48836,0.92091 -3.48836,16.02289 v 15.14737 l 10.79076,-0.49003 c 8.21496,-0.37306 11.47762,-1.11165 13.66825,-3.09413 z"
       id="path14" />
    <path
       style="fill:#f9f9f9;stroke-width:3.09826"
       d="m 133.22944,751.09518 c 0.0528,-4.46902 4.86461,-21.19577 13.54562,-47.08754 5.23665,-15.61873 10.88471,-33.60041 12.55123,-39.95928 4.14151,-15.80257 6.322,-17.8183 19.24862,-17.7941 5.48207,0.0103 11.30018,0.37615 12.92913,0.81309 3.38053,0.90678 7.22376,8.89765 10.63649,22.11544 1.22147,4.73087 5.91762,19.17895 10.4359,32.10685 7.16147,20.49074 14.90397,46.61947 14.90397,50.29668 0,0.66917 -6.04755,1.21667 -13.439,1.21667 h -13.439 l -2.49635,-10.92998 -2.49635,-10.92999 H 179.51635 163.423 l -2.45666,10.92999 -2.45666,10.92998 h -12.65022 c -9.22011,0 -12.64474,-0.46307 -12.63002,-1.70781 z m 55.98359,-41.67058 c -0.0221,-1.82822 -9.37189,-34.77375 -10.06543,-35.46728 -0.68483,-0.68483 -1.27972,1.3182 -6.23921,21.00774 -4.08653,16.2238 -4.40908,15.48423 6.7533,15.48423 5.26006,0 9.55816,-0.46111 9.55134,-1.02469 z"
       id="path15" />
  </g>
</svg>
