<?xml version="1.0" encoding="UTF-8" standalone="no"?>
<!-- Uploaded to: SVG Repo, www.svgrepo.com, Transformed by: SVG Repo Mixer Tools -->

<svg
   width="800px"
   height="800px"
   viewBox="0 -10.44 722.846 722.846"
   fill="#000000"
   version="1.1"
   id="svg2"
   sodipodi:docname="kubernetes.svg"
   inkscape:version="1.4.2 (ebf0e940d0, 2025-05-08)"
   xmlns:inkscape="http://www.inkscape.org/namespaces/inkscape"
   xmlns:sodipodi="http://sodipodi.sourceforge.net/DTD/sodipodi-0.dtd"
   xmlns="http://www.w3.org/2000/svg"
   xmlns:svg="http://www.w3.org/2000/svg">
  <defs
     id="defs2" />
  <sodipodi:namedview
     id="namedview2"
     pagecolor="#ffffff"
     bordercolor="#000000"
     borderopacity="0.25"
     inkscape:showpageshadow="2"
     inkscape:pageopacity="0.0"
     inkscape:pagecheckerboard="0"
     inkscape:deskcolor="#d1d1d1"
     inkscape:zoom="0.415"
     inkscape:cx="398.79518"
     inkscape:cy="400"
     inkscape:window-width="1910"
     inkscape:window-height="1026"
     inkscape:window-x="0"
     inkscape:window-y="0"
     inkscape:window-maximized="1"
     inkscape:current-layer="svg2" />
  <g
     id="SVGRepo_bgCarrier"
     stroke-width="0" />
  <g
     id="SVGRepo_tracerCarrier"
     stroke-linecap="round"
     stroke-linejoin="round" />
  <path
     style="fill:#f9f9f9;stroke-width:5.46438"
     d="m 245.95887,723.92788 c -2.08063,-2.08063 -4.50076,-6.64289 -5.37807,-10.13839 -1.71515,-6.83371 -0.21636,-10.05542 19.34106,-41.57431 9.0298,-14.55251 11.41082,-20.6721 12.02265,-30.90017 l 0.76292,-12.7539 -13.91308,-9.44819 c -40.30127,-27.36808 -73.00096,-69.67815 -93.30679,-120.72945 -2.20867,-5.55287 -4.4117,-6.66718 -16.05787,-8.12227 -11.84166,-1.47951 -16.53404,-0.61585 -38.23933,7.03822 -33.072704,11.66263 -39.721256,11.4795 -46.317243,-1.27573 -3.040788,-5.88024 -3.119784,-8.0574 -0.49134,-13.54147 4.480105,-9.34742 13.376374,-12.69535 40.521913,-15.24952 25.99576,-2.446 33.34911,-4.43615 38.26147,-10.35516 1.76444,-2.12602 4.44666,-3.86549 5.96051,-3.86549 1.93273,0 2.82349,-10.94362 2.99102,-36.74699 0.29751,-45.82043 6.37791,-71.76135 26.16607,-111.63265 l 13.2477,-26.69288 -4.82051,-9.97732 c -4.63327,-9.58975 -20.48398,-22.5313 -39.722,-32.43161 -13.28379,-6.83613 -20.48193,-15.34049 -20.48193,-24.19871 0,-9.91587 6.14771,-16.16514 15.85239,-16.11427 9.07596,0.0476 9.20578,0.14006 34.82461,24.81057 16.66624,16.04931 23.3002,20.93567 28.42328,20.93567 3.67557,0 7.95755,1.27468 9.5155,2.83264 2.17042,2.17042 6.08552,-0.25752 16.74699,-10.38564 34.69557,-32.95991 86.74128,-57.6815 133.81832,-63.56339 9.52995,-1.19069 13.83096,-2.79208 13.83096,-5.14966 0,-1.88187 1.77065,-6.12396 3.9348,-9.42686 3.55033,-5.41849 3.62583,-8.95109 0.77265,-36.15356 -3.58653,-34.194118 -2.27179,-41.428951 8.46381,-46.574375 6.05065,-2.900008 7.89722,-2.888543 13.19694,0.08193 10.52122,5.897112 13.18236,14.77524 10.07272,33.604855 -3.35557,20.31868 -3.5175,47.2011 -0.29634,49.19189 1.3253,0.81908 2.40964,4.01114 2.40964,7.09348 0,5.01426 1.45602,5.78615 13.83096,7.3323 46.05689,5.75443 100.01976,31.27125 133.33506,63.04868 11.43836,10.91034 14.61089,12.78159 18.27718,10.78037 2.43998,-1.33186 7.63444,-3.10415 11.54326,-3.93842 4.40937,-0.94111 14.92742,-9.11151 27.71084,-21.52575 11.33214,-11.00488 22.93668,-21.21206 25.78783,-22.68261 7.6001,-3.91993 18.98781,0.74536 22.4966,9.21636 4.66261,11.25649 -1.24698,18.6307 -29.02438,36.21776 -13.60588,8.61445 -25.64665,17.56024 -26.75728,19.87951 -1.11065,2.31928 -3.11058,6.11446 -4.44431,8.43374 -1.33376,2.31928 -3.02786,5.44613 -3.7647,6.94857 -0.73684,1.50243 1.97838,8.12428 6.03383,14.71521 10.03482,16.30865 21.12217,43.67024 27.10509,66.89044 3.71867,14.43243 5.15265,28.66363 5.70585,56.6265 0.62559,31.62239 1.31925,37.46887 4.52381,38.12848 2.08171,0.42851 3.78494,1.83926 3.78494,3.13502 0,4.27057 15.74708,9.03891 35.13624,10.63951 33.94713,2.80239 46.79147,8.88393 46.79147,22.15487 0,7.18574 -10.1435,17.50839 -17.20451,17.50839 -2.95646,0 -18.26882,-4.4348 -34.02747,-9.85509 -25.31033,-8.70568 -29.46882,-9.51679 -35.65472,-6.9545 -3.85145,1.59532 -8.54921,2.3071 -10.43942,1.58176 -2.26641,-0.86969 -3.9861,0.86983 -5.04983,5.10814 -2.9827,11.884 -17.68164,41.2679 -29.38627,58.7446 -14.79099,22.08509 -40.61253,48.50097 -62.21369,63.64562 l -16.86747,11.82585 1.29629,12.04819 c 1.43716,13.35733 2.51222,15.65738 19.43482,41.58022 13.21142,20.23786 15.12926,30.99316 6.97974,39.14268 -12.14545,12.14544 -27.93844,1.5519 -35.26407,-23.65422 C 511.13055,676.468 505.0147,664.25694 496.0814,655.97723 l -8.5001,-7.87819 -16.07981,4.70872 c -25.51604,7.47195 -42.73891,9.84284 -71.50149,9.84284 -28.96017,0 -45.97892,-2.36715 -72.1467,-10.03501 -15.23111,-4.46311 -16.97672,-4.55665 -19.54277,-1.04737 -1.54973,2.11939 -4.06954,3.85347 -5.59954,3.85347 -4.50294,0 -11.80349,14.0766 -19.9227,38.41402 -4.17454,12.51328 -10.09291,25.25424 -13.15194,28.31325 -6.48694,6.48694 -18.09717,7.35923 -23.67748,1.77892 z M 443.21619,610.65704 c 9.19058,-1.84497 17.68971,-4.33403 18.88694,-5.53126 2.59629,-2.59629 -44.20513,-88.62923 -51.61677,-94.88482 -5.83496,-4.92484 -16.34658,-5.50404 -21.86571,-1.20482 -3.02781,2.35858 -33.65829,55.39615 -52.13998,90.28188 -2.68812,5.07405 -2.13279,5.54547 11.0675,9.39531 26.1486,7.62614 63.57323,8.3865 95.66802,1.94371 z m 89.12885,-45.11629 c 16.91465,-14.60304 33.3998,-36.05783 45.14429,-58.75347 10.72122,-20.71827 11.25173,-24.31415 3.83597,-26.00109 -13.04084,-2.9665 -93.49942,-15.72595 -99.16494,-15.72595 -8.37173,0 -15.8953,7.96711 -15.8953,16.83241 0,3.9566 8.9388,28.83564 19.86398,55.28672 l 19.86397,48.0929 6.55819,-4.15234 c 3.60699,-2.28381 12.51422,-9.29444 19.79384,-15.57918 z M 313.03728,536.69137 c 10.48378,-25.48147 19.10426,-49.99373 19.15662,-54.47171 0.10697,-9.14233 -7.46853,-17.15942 -16.21421,-17.15942 -5.91239,0 -103.31982,16.6574 -104.53945,17.87704 -1.49157,1.49156 10.87271,27.23308 19.73552,41.08788 4.84644,7.57621 13.91091,19.26385 20.14328,25.97255 12.51093,13.46713 36.47508,33.16239 40.24723,33.07769 1.3253,-0.0297 10.98725,-20.90256 21.47101,-46.38403 z m 100.18778,-90.89412 c 12.31983,-6.21903 14.6199,-8.4639 16.66523,-16.26506 5.92663,-22.60503 6.05173,-21.46405 -3.746,-34.16691 l -9.27682,-12.02747 -17.26489,-0.10263 -17.26492,-0.10265 -9.61865,12.08053 -9.61867,12.08055 3.30376,13.82306 c 1.81706,7.6027 3.34238,14.61897 3.38959,15.59169 0.0658,1.3553 25.13923,15.61294 28.4678,16.18778 0.36911,0.0638 7.10273,-3.13074 14.96357,-7.09889 z M 252.83698,422.86877 c 25.08444,-7.27978 48.04437,-14.83229 51.02206,-16.78335 6.45679,-4.23065 9.15959,-11.52944 7.18409,-19.40046 -1.31552,-5.24137 -77.16959,-75.84159 -81.48552,-75.84159 -2.68547,0 -14.96523,25.67376 -20.74554,43.3735 -5.7646,17.65161 -9.89804,43.29653 -9.96916,61.85111 -0.0541,14.10872 1.62421,20.08566 5.63176,20.05667 1.51484,-0.011 23.27787,-5.97612 48.36231,-13.25588 z m 345.28206,-15.03744 c -0.85376,-18.07029 -3.20065,-34.79516 -6.48723,-46.23029 -5.90497,-20.54538 -19.73005,-49.55285 -23.61709,-49.55285 -4.40539,0 -77.98544,66.82499 -80.30886,72.93605 -2.55335,6.71581 -0.65564,16.08704 4.04819,19.99089 3.6612,3.03853 95.85626,30.75364 103.15503,31.00983 4.28106,0.15027 4.46923,-1.50004 3.20996,-28.15363 z M 358.73277,335.05511 c 3.31894,-1.26188 7.28875,-4.63798 8.82176,-7.50244 2.48243,-4.63845 10.17933,-108.18795 8.20267,-110.35374 -1.61062,-1.76474 -38.86347,7.63119 -53.68356,13.5401 -23.85094,9.50959 -65.23845,38.4491 -62.14526,43.454 3.22774,5.22258 86.69251,63.15637 90.98892,63.15637 0.97957,0 4.49651,-1.03244 7.81547,-2.29429 z m 107.9413,-9.1515 c 50.32988,-34.69636 71.72154,-50.3208 71.75485,-52.40963 0.0442,-2.76921 -12.71743,-13.59621 -29.5435,-25.06487 -20.30137,-13.83741 -50.36055,-25.61164 -77.31966,-30.28623 l -9.39807,-1.62959 1.60747,30.89998 c 3.73571,71.81083 4.46089,78.41314 9.12491,83.07716 7.22364,7.22364 18.95258,5.63075 33.774,-4.58682 z"
     id="path3"
     transform="matrix(0.9035575,0,0,0.9035575,0,-10.44)" />
</svg>
