<?xml version="1.0" encoding="UTF-8" standalone="no"?>
<!-- Created with Inkscape (http://www.inkscape.org/) -->

<svg
   version="1.1"
   id="svg1"
   width="219.68483"
   height="281.82532"
   viewBox="0 0 219.68483 281.82532"
   sodipodi:docname="idwbF1-REU_1755147614082.jpeg"
   xmlns:inkscape="http://www.inkscape.org/namespaces/inkscape"
   xmlns:sodipodi="http://sodipodi.sourceforge.net/DTD/sodipodi-0.dtd"
   xmlns="http://www.w3.org/2000/svg"
   xmlns:svg="http://www.w3.org/2000/svg">
  <defs
     id="defs1" />
  <sodipodi:namedview
     id="namedview1"
     pagecolor="#ffffff"
     bordercolor="#000000"
     borderopacity="0.25"
     inkscape:showpageshadow="2"
     inkscape:pageopacity="0.0"
     inkscape:pagecheckerboard="0"
     inkscape:deskcolor="#d1d1d1"
     showgrid="false">
    <inkscape:page
       x="0"
       y="0"
       width="219.68483"
       height="281.82532"
       id="page2"
       margin="0"
       bleed="0" />
  </sodipodi:namedview>
  <g
     inkscape:groupmode="layer"
     inkscape:label="Image"
     id="g1"
     transform="translate(-91.15477,-63.149867)">
    <path
       style="fill:#f9f9f9"
       d="m 186,343.1176 c -6.7879,-2.19045 -10.84873,-4.27799 -14.81658,-7.61672 -1.68099,-1.41445 -6.12243,-4.11287 -9.86988,-5.99647 -3.74745,-1.88361 -8.57723,-4.88823 -10.73285,-6.67694 -2.15562,-1.78871 -6.40842,-4.09252 -9.45066,-5.11957 -15.14875,-5.11419 -27.69042,-18.86401 -31.20217,-34.2079 -0.62939,-2.75 -2.63471,-8.15 -4.45625,-12 -1.82155,-3.85 -3.64419,-8.35 -4.05031,-10 -0.40612,-1.65 -1.825182,-4.43591 -3.153473,-6.19092 C 94.279944,250.04009 91.805567,242.16322 91.259836,233 90.43171,219.09517 94.497882,207.1359 103.49984,197.00018 105.97493,194.21336 108,191.36136 108,190.6624 c 0,-0.69896 1.29968,-3.32022 2.88818,-5.82503 1.5885,-2.5048 3.21385,-6.4818 3.61189,-8.83777 0.95337,-5.64295 6.71323,-16.58859 11.09895,-21.09167 l 3.49845,-3.59208 -2.90311,-2.90792 c -1.59671,-1.59936 -4.75642,-4.13245 -7.02157,-5.62908 -4.51213,-2.98127 -9.86999,-9.72421 -10.85954,-13.66689 -0.34639,-1.38015 -2.09214,-4.42513 -3.87944,-6.76662 -4.464576,-5.84891 -5.781855,-10.42066 -5.176283,-17.96481 0.373352,-4.651181 0.143257,-6.632946 -0.867525,-7.471821 -2.330191,-1.933886 -3.588362,-8.458341 -2.447867,-12.693816 1.953005,-7.252905 11.578605,-13.684957 22.308855,-14.907302 2.88696,-0.32887 6.37814,-1.386089 7.75818,-2.349375 4.05584,-2.831026 9.65655,-3.720202 23.93918,-3.800611 11.29116,-0.06357 14.15875,0.238531 17.87712,1.883341 2.43582,1.07748 5.85821,1.959054 7.6053,1.959054 4.89118,0 13.47181,4.799643 19.74874,11.04662 l 5.67951,5.652404 6.12742,-5.92189 c 6.56469,-6.344505 14.59093,-10.75153 19.60992,-10.767365 1.703,-0.0054 4.628,-0.797269 6.5,-1.759769 2.72403,-1.400572 6.2989,-1.784014 17.90364,-1.920349 15.04298,-0.176729 20.72014,0.647572 24.99083,3.628565 1.38004,0.963286 4.87122,2.020505 7.75818,2.349375 9.36233,1.066517 17.68296,5.81348 20.846,11.892749 1.90851,3.668099 1.76881,10.216405 -0.30081,14.09932 -1.15532,2.167569 -1.72006,5.62064 -1.75,10.70034 -0.0461,7.81791 -1.6439,12.58314 -5.66729,16.90175 -1.11286,1.19451 -2.68985,4.12782 -3.50442,6.51846 -1.79799,5.2768 -7.08979,11.65985 -12.13971,14.64311 -2.05303,1.21283 -4.7133,3.34952 -5.91171,4.7482 l -2.17893,2.54306 3.96412,4.50348 c 4.46226,5.06939 9.31505,14.69496 10.34648,20.52235 0.37775,2.13422 1.69555,5.50922 2.92845,7.5 1.2329,1.99077 2.81946,5.05401 3.52569,6.80718 0.70624,1.75318 3.01312,5.00521 5.12641,7.22674 7.90969,8.31482 12.77836,23.32276 11.64257,35.88889 -0.80329,8.88747 -1.98278,12.66346 -6.08206,19.47099 -1.88515,3.1306 -3.96916,7.38711 -4.63113,9.4589 -0.66198,2.07179 -2.46808,6.24189 -4.01358,9.26689 -1.54549,3.025 -3.11058,7.44059 -3.47798,9.81242 -1.08521,7.00586 -7.24095,18.08603 -13.57739,24.43895 C 273.59062,311.56825 260.97283,319 257.24879,319 c -0.71919,0 -3.57298,1.79066 -6.34174,3.97924 -2.76877,2.18858 -7.81803,5.36506 -11.22058,7.05885 -3.40256,1.69378 -8.64034,4.86326 -11.63952,7.04329 -2.99918,2.18003 -8.33408,4.85355 -11.85534,5.94116 -8.30457,2.56502 -22.40003,2.6094 -30.19161,0.0951 z m 27.21249,-14.0973 c 20.40045,-7.63813 15.63808,-20.8606 -8.17479,-22.69691 -9.81414,-0.75681 -21.69666,1.67732 -26.0436,5.33503 -12.56217,10.57037 15.00277,24.5564 34.21839,17.36188 z m -51.17732,-24.53849 c 6.92243,-3.57972 4.72077,-15.44291 -5.42338,-29.22275 -8.05304,-10.93929 -20.15541,-18.57785 -26.22751,-16.55382 -4.50292,1.50097 -6.58132,5.28729 -7.11041,12.95331 -0.67011,9.70931 2.20084,16.97616 9.64969,24.42501 8.6826,8.6826 21.44308,12.3638 29.11161,8.39825 z m 95.64633,-0.6356 c 6.99554,-2.61737 15.33737,-10.51907 18.52148,-17.54426 2.85411,-6.29708 3.1019,-18.23777 0.47927,-23.09491 -3.72223,-6.89361 -11.46209,-6.28399 -21.34961,1.68157 -12.22007,9.8447 -20.08748,23.72239 -19.48816,34.37609 0.35763,6.35745 11.07858,8.60676 21.83702,4.58151 z M 212.5567,291.8929 c 15.48415,-5.79336 21.42172,-21.90178 12.84832,-34.85706 -11.09876,-16.77135 -41.50426,-15.36569 -50.61487,2.33995 -2.91397,5.66304 -2.95447,14.71136 -0.0901,20.12421 6.60791,12.48692 23.14022,17.89901 37.85661,12.3929 z m -91.57502,-46.10318 c 7.30467,-12.01155 6.04034,-40.50842 -1.84676,-41.62435 -3.20832,-0.45394 -8.37181,4.6812 -11.2783,11.21637 -1.81856,4.08899 -2.27746,6.92814 -2.28195,14.11826 -0.005,7.88155 0.3369,9.65831 2.75068,14.29733 4.14516,7.96655 8.59703,8.66737 12.65633,1.99239 z m 171.25172,0.0767 c 7.03315,-10.84674 5.49396,-28.8127 -3.25655,-38.01139 -4.67951,-4.9192 -7.48196,-4.88022 -10.42621,0.14499 -2.92329,4.98942 -2.98739,25.06903 -0.10376,32.5 2.8849,7.43423 4.58992,9.43234 8.07968,9.46858 2.464,0.0256 3.52476,-0.73692 5.70684,-4.10218 z M 173.64229,243.0401 c 6.50233,-2.87629 13.59793,-10.66051 16.29754,-17.87919 7.26368,-19.4229 -2.85902,-37.36089 -21.08337,-37.36089 -10.55216,0 -21.97563,7.61755 -27.00571,18.0083 -2.71121,5.60062 -3.68083,18.09451 -1.84787,23.8104 4.46014,13.90843 19.22295,19.79847 33.63941,13.42138 z m 73.23131,1.40482 c 18.78937,-5.57985 21.85986,-33.37465 5.3664,-48.5778 -5.89127,-5.43038 -11.91843,-7.96612 -19.00226,-7.99461 -10.17544,-0.0409 -16.94776,4.13798 -21.10104,13.02055 -7.67282,16.40977 1.53187,37.1517 19.19575,43.25589 6.4118,2.21576 8.91592,2.26345 15.54115,0.29597 z M 142.50124,184.45709 C 154.62346,177.15747 167,164.18645 167,158.78158 c 0,-3.8337 -2.42459,-5.19112 -9.05459,-5.06929 -16.30805,0.29968 -32.94573,18.19733 -29.53798,31.7749 0.97069,3.86754 6.64977,3.45247 14.09381,-1.0301 z M 272.8,186.8 c 1.6804,-1.6804 1.49381,-6.57741 -0.47139,-12.37186 -2.29738,-6.77393 -11.98282,-16.45937 -18.75675,-18.75675 -4.8936,-1.65968 -13.95883,-2.2276 -16.99007,-1.0644 -2.24078,0.85987 -1.99768,5.98401 0.47359,9.98261 3.03529,4.91121 14.75971,15.37133 22.03671,19.6604 6.48441,3.82191 11.50251,4.7554 13.70791,2.55 z m -54.55807,-7.27678 c 2.60806,-0.93815 6.15296,-3.02382 7.87754,-4.63482 2.73259,-2.55262 3.05959,-3.39757 2.54414,-6.57393 -1.86896,-11.51702 -23.46055,-19.86411 -38.47927,-14.8757 -13.22064,4.39119 -20.31893,13.64096 -15.61826,20.35211 1.80977,2.58381 7.73528,5.81481 13.16839,7.18031 5.79251,1.45584 24.96455,0.54588 30.50746,-1.44797 z M 164.29359,144.51175 C 173.84483,142.02396 181,135.97751 181,130.39405 181,124.07823 156.3088,102.83807 141.43352,96.357697 137.89508,94.816188 135,93.244998 135,92.866164 c 0,-1.045335 11.18203,1.785316 18.00566,4.558006 8.95171,3.63741 18.87216,10.64307 26.45731,18.68372 6.19662,6.56875 6.91306,7.04181 9.13286,6.0304 3.9137,-1.7832 6.39913,-6.90267 6.37847,-13.13829 -0.0308,-9.28422 -6.13781,-19.61102 -14.87396,-25.151318 -5.35865,-3.398356 -6.7475,-3.535732 -7.63016,-0.754723 -0.65834,2.074234 -0.68959,2.0706 -3.31739,-0.385839 C 165.47356,79.268816 160.66291,77 157.04966,77 154.46336,77 154,77.379842 154,79.5 c 0,2.509921 -1.35961,3.345185 -2.48394,1.525983 -1.08935,-1.762609 -10.78368,-4.066404 -14.31983,-3.403017 -3.02266,0.567054 -3.33705,0.923635 -2.8715,3.256902 l 0.52279,2.620132 -9.17376,0.01382 c -6.84381,0.01031 -9.9992,0.461297 -12.42376,1.77568 -3.90069,2.114607 -4.03524,3.43264 -0.67579,6.620255 2.83496,2.689953 4.81656,6.22001 5.8045,10.340245 0.58349,2.43345 0.37622,2.75 -1.80064,2.75 -5.56842,0 -4.41825,5.33746 2.62945,12.20213 3.85623,3.75609 4.78098,5.18694 3.76007,5.8179 -3.43566,2.12336 3.95316,9.7156 11.82594,12.15151 3.56552,1.10321 4.20654,1.67647 3.78053,3.38089 -0.62772,2.51143 3.35559,5.14418 9.66549,6.38837 6.50628,1.2829 9.82158,1.1943 16.05404,-0.42905 z m 93.5388,-0.76409 c 4.57836,-1.94692 6.32595,-3.85195 4.99963,-5.45007 -0.929,-1.11937 -0.6849,-1.5233 1.22191,-2.02195 4.50371,-1.17774 12.23659,-5.77891 14.25088,-8.47946 1.70183,-2.28163 1.80994,-2.95298 0.69238,-4.29957 -1.1424,-1.37651 -0.6995,-2.24155 3.22363,-6.29618 C 289.68636,109.48467 290.86341,105 285.42298,105 c -2.3038,0 -2.56134,-0.31259 -2.02341,-2.4559 1.22707,-4.889004 2.52555,-7.389218 5.73738,-11.0473 3.16014,-3.599198 3.2058,-3.77301 1.34789,-5.131545 -3.23339,-2.364309 -9.60501,-3.584158 -16.64367,-3.186438 l -6.70268,0.378735 0.52978,-2.648908 c 0.47673,-2.383644 0.17573,-2.715329 -3.0058,-3.312187 -2.42994,-0.455859 -5.35357,-0.0254 -9.34903,1.376494 -7.99246,2.804331 -7.85127,2.799116 -7.50058,0.277049 0.26642,-1.916068 -0.14648,-2.25 -2.78212,-2.25 -4.1827,0 -9.01137,2.179211 -11.99465,5.413267 l -2.46391,2.671025 -1.66541,-2.20789 -1.66541,-2.207889 -4.48353,2.627521 c -13.40168,7.853908 -20.34695,25.998536 -13.42517,35.073466 4.0877,5.35925 5.93534,5.45047 10.37205,0.5121 11.76105,-13.09087 22.27983,-19.885217 37.65716,-24.323717 C 267.43346,91.650826 267,91.729165 267,92.815986 c 0,0.448793 -2.56658,1.879774 -5.70351,3.179958 -11.98794,4.968726 -28.60606,17.839126 -37.67526,29.178736 l -3.73872,4.67469 2.0361,3.9911 c 2.97554,5.83254 8.23972,9.18102 17.58139,11.18331 4.72577,1.01293 14.55917,0.32842 18.33239,-1.27612 z"
       id="path1" />
  </g>
</svg>
